<?xml version="1.0" encoding="UTF-8"?> <svg xmlns="http://www.w3.org/2000/svg" xmlns:xlink="http://www.w3.org/1999/xlink" id="Group_1181" data-name="Group 1181" width="230.887" height="58.557" viewBox="0 0 230.887 58.557"><defs><clipPath id="clip-path"><rect id="Rectangle_357" data-name="Rectangle 357" width="230.887" height="58.557" fill="#fff"></rect></clipPath></defs><g id="Group_1179" data-name="Group 1179" transform="translate(0 0)" clip-path="url(#clip-path)"><path id="Path_1800" data-name="Path 1800" d="M80.426,47.694c1.97,0,3.693-.031,4.339-.093,0,.677,0,2.985.062,4.432-.123.246-.677.307-.985.123-.308-1.785-.8-2.677-1.97-2.985a9.852,9.852,0,0,0-2.586-.246h-1.57c-1.292,0-1.292.061-1.292,1.785v5.508c0,.769.031.831.739.831H78.98c2.677,0,3.138-.062,3.446-1.355l.247-1.045a.7.7,0,0,1,.923.03c-.031.8-.093,1.94-.093,3.078s.061,2.247.092,3.2a.7.7,0,0,1-.923.031l-.247-1.2c-.277-1.292-.769-1.354-3.446-1.354H77.164c-.708,0-.739.061-.739.83v4.309c0,3.262.277,3.292,1.724,3.477l1.292.154c.215.215.185.769-.061.893C77.41,68.035,76.025,68,74.671,68s-2.739.031-4.154.093c-.247-.123-.277-.677-.061-.893l.677-.092c1.446-.185,1.723-.277,1.723-3.539V52.125c0-3.262-.277-3.355-1.723-3.57l-.4-.061c-.215-.216-.185-.769.061-.893,1.077.062,2.462.093,3.816.093Z" transform="translate(-25.379 -17.182)" fill="#fff"></path><path id="Path_1801" data-name="Path 1801" d="M98.8,52.126c0-3.262-.277-3.324-1.724-3.57l-.523-.092a.619.619,0,0,1,.062-.861c1.231.061,2.616.092,3.97.092,1.385,0,2.77-.031,4.124-.092a.619.619,0,0,1,.061.861l-.677.092c-1.446.185-1.724.308-1.724,3.57v7.047c0,4.248,1.292,7.817,5.57,7.817,4.032,0,5.693-3.047,5.693-7.725V55.418c0-2.308-.031-5.17-.585-6.063a1.975,1.975,0,0,0-1.538-.8l-.616-.092c-.277-.215-.246-.769.062-.861,1.046.061,2.216.092,3.416.092,1.293,0,2.124-.031,3.262-.092a.6.6,0,0,1,.061.861l-.677.154c-.585.123-1.139.246-1.354.738-.431.923-.431,3.632-.431,6.063v3.662c0,2.8-.431,5.385-2.031,7.109a8.075,8.075,0,0,1-6.031,2.308c-2.893,0-4.924-.615-6.34-1.97-1.385-1.323-2.031-3.477-2.031-6.586Z" transform="translate(-34.8 -17.182)" fill="#fff"></path><path id="Path_1802" data-name="Path 1802" d="M138.733,62.927c0,1.539.061,2.648.523,3.17.369.431.862.677,3.324.677,3.416,0,3.908-.154,5.324-3.324a.824.824,0,0,1,.954.184,29.172,29.172,0,0,1-1.293,4.463c-1.293-.062-3.939-.093-7.386-.093h-3.2c-1.569,0-3.108.031-4.4.093-.247-.123-.339-.738-.062-.893l.923-.154c1.446-.246,1.724-.277,1.724-3.477V52.126c0-3.2-.277-3.293-1.724-3.509l-.861-.123c-.216-.154-.216-.769.061-.892,1.539.061,2.924.092,4.339.092,1.354,0,2.739-.031,4.093-.092a.607.607,0,0,1,.061.892l-.677.123c-1.446.247-1.724.308-1.724,3.509Z" transform="translate(-47.771 -17.182)" fill="#fff"></path><path id="Path_1803" data-name="Path 1803" d="M166.183,62.927c0,1.539.061,2.648.523,3.17.369.431.863.677,3.324.677,3.416,0,3.908-.154,5.325-3.324a.823.823,0,0,1,.953.184,29.031,29.031,0,0,1-1.293,4.463c-1.292-.062-3.939-.093-7.385-.093h-3.2c-1.57,0-3.108.031-4.4.093-.247-.123-.339-.738-.062-.893l.923-.154c1.446-.246,1.724-.277,1.724-3.477V52.126c0-3.2-.277-3.293-1.724-3.509l-.861-.123c-.215-.154-.215-.769.061-.892,1.539.061,2.924.092,4.339.092,1.353,0,2.739-.031,4.093-.092a.607.607,0,0,1,.061.892l-.677.123c-1.446.247-1.723.308-1.723,3.509Z" transform="translate(-57.679 -17.182)" fill="#fff"></path><path id="Path_1804" data-name="Path 1804" d="M189.958,52.126c0-3.262-.277-3.385-1.724-3.57l-.492-.061c-.216-.215-.185-.769.061-.892,1.169.061,2.616.092,3.97.092h5.877c1.97,0,3.754-.031,4.155-.092.122.523.307,2.954.492,4.277-.124.247-.739.308-.985.123-.492-1.785-.954-2.524-1.939-2.8a10.4,10.4,0,0,0-2.462-.277H194.85c-1.323,0-1.323.062-1.323,1.816v5.2c0,.8.031.831.739.831h1.477c2.677,0,3.139-.031,3.416-1.354l.216-1.045c.246-.216.83-.216.985.03-.031.831-.092,1.94-.092,3.078,0,1.169.061,2.246.092,3.231a.877.877,0,0,1-.985.031l-.216-1.23c-.215-1.293-.739-1.355-3.416-1.355h-1.477c-.707,0-.739.062-.739.831V62.9c0,1.569.061,2.678.523,3.2.369.431.893.646,3.478.677,3.909.031,4.585-.831,5.663-3.323a.73.73,0,0,1,.985.184,19.681,19.681,0,0,1-1.293,4.462c-1.354-.062-4-.092-7.6-.092h-3.507c-1.354,0-3.232.03-4.617.092-.246-.123-.277-.677-.061-.892l1.139-.123c1.446-.154,1.724-.247,1.724-3.508Z" transform="translate(-67.48 -17.182)" fill="#fff"></path><path id="Path_1805" data-name="Path 1805" d="M218.617,52.31c0-2.954-.03-3.324-1.476-3.478l-.8-.092a.622.622,0,0,1,.029-.862c1.94-.184,4.556-.277,7.079-.277a12.92,12.92,0,0,1,5.847,1.046A4.83,4.83,0,0,1,232,53.14,5.323,5.323,0,0,1,228.311,58c-.185.092-.123.339,0,.523,2.463,4.154,4,6.771,5.447,7.97a3.943,3.943,0,0,0,2.125.955.56.56,0,0,1,.061.615,8.354,8.354,0,0,1-2.03.185c-2.954,0-4.556-1.2-6.433-4.063-.83-1.292-1.692-2.985-2.43-4.185a1.724,1.724,0,0,0-1.908-1.046c-.923,0-.955.031-.955.677v3.939c0,3.262.277,3.354,1.723,3.54l.678.092c.215.215.185.769-.063.893-1.354-.062-2.738-.093-4.092-.093s-2.738.031-4.155.093a.6.6,0,0,1-.061-.893l.678-.092c1.445-.185,1.722-.277,1.722-3.54Zm3.57,4.431c0,.985,0,1.047,1.478,1.047,3.015,0,4.4-1.477,4.4-4.4a4.253,4.253,0,0,0-4.247-4.555c-1.6,0-1.631.093-1.631,1.508Z" transform="translate(-77.983 -17.182)" fill="#fff"></path><path id="Path_1806" data-name="Path 1806" d="M252.97,49.809c0-1.292-.031-1.354-.831-1.354h-1.724c-2.831,0-3.662.339-4.8,2.832a.771.771,0,0,1-.985-.215c.523-1.662.985-3.57,1.2-4.647a.382.382,0,0,1,.338-.123.354.354,0,0,1,.307.123c.155.769.585.8,2.678.8H261.71c1.508,0,1.97-.092,2.339-.8a.87.87,0,0,1,.369-.123.487.487,0,0,1,.4.154,21.651,21.651,0,0,0-.462,4.893.736.736,0,0,1-.955.093c-.4-2.4-.985-2.985-4.277-2.985h-1.754c-.8,0-.831.062-.831,1.354V63.1c0,3.262.277,3.354,1.723,3.508l1.108.123c.216.215.185.769-.061.893-1.785-.062-3.169-.093-4.523-.093s-2.8.031-4.771.093a.663.663,0,0,1-.061-.893l1.292-.154c1.446-.185,1.724-.215,1.724-3.477Z" transform="translate(-88.3 -16.712)" fill="#fff"></path><path id="Path_1807" data-name="Path 1807" d="M299.311,57.685a10.436,10.436,0,0,1-10.833,10.586c-6.955,0-10.955-4.893-10.955-10.371a10.6,10.6,0,0,1,11.018-10.925c7.108,0,10.77,5.109,10.77,10.709m-17.6-.677c0,4.247,1.816,10.032,7.078,10.032,3.509,0,6.339-2.616,6.339-8.8,0-4.647-2.092-10.032-6.985-10.032-3.077,0-6.432,2.246-6.432,8.8" transform="translate(-100.172 -16.956)" fill="#fff"></path><path id="Path_1808" data-name="Path 1808" d="M333.244,62.774c0,.923,0,4.708.093,5.416a1.171,1.171,0,0,1-1.047.431c-.492-.645-1.384-1.692-3.6-4.215l-7.2-8.218c-1.97-2.277-2.986-3.415-3.509-3.877-.092,0-.092.338-.092,1.97v6c0,2.308.031,5.139.554,6.062a1.935,1.935,0,0,0,1.57.769l.677.092c.277.215.245.8-.061.893-1.139-.062-2.339-.092-3.508-.092-1.293,0-2.124.03-3.2.092a.631.631,0,0,1-.063-.893l.678-.154c.584-.123,1.138-.215,1.354-.707.4-.953.4-3.632.4-6.062V52.987c0-2.4.031-2.893-1.015-3.785a4.966,4.966,0,0,0-1.631-.615l-.461-.093c-.216-.185-.185-.8.123-.892,1.168.123,2.862.092,3.631.092.646,0,1.385-.031,2.123-.092.523,1.323,3.878,5.2,4.955,6.37L327.09,57.3c1.292,1.415,4.154,4.678,4.462,4.863.092-.092.092-.247.092-.739v-6c0-2.308-.031-5.139-.585-6.063a1.87,1.87,0,0,0-1.539-.769l-.707-.093c-.277-.215-.246-.8.062-.892,1.2.061,2.338.092,3.538.092,1.323,0,2.124-.031,3.232-.092a.63.63,0,0,1,.061.892l-.708.154c-.584.123-1.107.215-1.323.707-.431.955-.431,3.632-.431,6.063Z" transform="translate(-112.992 -17.182)" fill="#fff"></path><path id="Path_1809" data-name="Path 1809" d="M78.416,27.532a.288.288,0,0,1-.359.022,2.061,2.061,0,0,0-2.18-1.64c-1.426,0-2.864,1.011-2.864,3.313,0,2.393,1.494,3.561,2.943,3.561A2.45,2.45,0,0,0,78.3,31.115a.226.226,0,0,1,.337.045,4.364,4.364,0,0,1-.539,1.708,3.921,3.921,0,0,0-.393.1,6.7,6.7,0,0,1-1.753.27,5.117,5.117,0,0,1-2.876-.753,3.539,3.539,0,0,1-1.6-3.089A3.666,3.666,0,0,1,72.9,26.42a5.2,5.2,0,0,1,3.1-.955,8.664,8.664,0,0,1,1.943.247c.135.034.213.045.314.068.022.258.045.921.157,1.752" transform="translate(-25.803 -9.192)" fill="#fff"></path><path id="Path_1810" data-name="Path 1810" d="M85.532,30.306c-.292,0-.281,0-.382.3l-.461,1.348c-.224.663-.18.685.236.753l.326.056c.079.079.068.281-.022.325-.359-.022-.73-.022-1.191-.033-.371,0-.719.011-1.112.033a.25.25,0,0,1-.012-.325l.337-.056c.326-.056.449-.146.618-.517.135-.292.314-.764.55-1.37l1.539-4a1.952,1.952,0,0,0,.213-.82,1.964,1.964,0,0,0,.786-.539.226.226,0,0,1,.191.089c.18.505.326,1.034.505,1.539L89.273,31.8c.258.753.314.82.888.932l.168.034a.241.241,0,0,1,.012.325c-.461-.022-.876-.033-1.46-.033-.483,0-.977.022-1.371.033a.256.256,0,0,1-.033-.325l.247-.034c.4-.056.461-.123.292-.6l-.528-1.527c-.1-.3-.146-.3-.46-.3ZM86.88,29.8c.314,0,.359-.022.27-.292l-.472-1.348a6.914,6.914,0,0,0-.315-.888h-.022c-.045.079-.146.359-.337.888l-.472,1.314c-.112.326-.09.326.18.326Z" transform="translate(-29.909 -9.192)" fill="#fff"></path><path id="Path_1811" data-name="Path 1811" d="M97.659,31.287a1.974,1.974,0,0,0,.191,1.157c.135.157.314.247,1.213.247,1.247,0,1.427-.056,1.943-1.213a.3.3,0,0,1,.348.067,10.563,10.563,0,0,1-.472,1.629c-.472-.022-1.438-.034-2.7-.034H97.019c-.573,0-1.134.011-1.607.034-.089-.045-.123-.27-.022-.326l.337-.056c.528-.089.629-.1.629-1.269V27.344c0-1.168-.1-1.2-.629-1.281l-.315-.045c-.079-.056-.079-.281.023-.326.561.022,1.067.034,1.584.034.494,0,1-.012,1.494-.034a.222.222,0,0,1,.022.326l-.247.045c-.528.09-.629.112-.629,1.281Z" transform="translate(-34.409 -9.274)" fill="#fff"></path><path id="Path_1812" data-name="Path 1812" d="M108,31.523c0,1.191.1,1.224.629,1.292l.247.034c.079.079.068.281-.022.326-.495-.022-1-.034-1.494-.034s-1.022.011-1.516.034c-.09-.045-.1-.247-.022-.326l.247-.034c.528-.067.629-.1.629-1.292V27.344c0-1.191-.1-1.224-.629-1.292l-.247-.033c-.079-.079-.068-.281.022-.326q.741.034,1.516.034c.495,0,1-.012,1.494-.034.09.045.1.247.022.326l-.247.033c-.528.068-.629.1-.629,1.292Z" transform="translate(-38.176 -9.274)" fill="#fff"></path><path id="Path_1813" data-name="Path 1813" d="M116.119,25.727c.719,0,1.348-.012,1.584-.034,0,.247,0,1.09.022,1.618-.045.089-.247.112-.36.045-.112-.652-.292-.977-.719-1.09a3.591,3.591,0,0,0-.943-.09h-.573c-.472,0-.472.022-.472.652v2.01c0,.281.011.3.27.3h.663c.977,0,1.146-.022,1.258-.495l.089-.382a.257.257,0,0,1,.337.011c-.012.292-.034.708-.034,1.123s.022.82.034,1.168a.256.256,0,0,1-.337.012l-.089-.438c-.1-.472-.281-.494-1.258-.494h-.663c-.259,0-.27.022-.27.3v1.573c0,1.191.1,1.2.629,1.27l.472.056c.079.079.067.281-.023.325-.719-.022-1.224-.033-1.718-.033s-1,.011-1.516.033c-.09-.045-.1-.247-.022-.325l.247-.034c.528-.068.629-.1.629-1.292V27.344c0-1.191-.1-1.224-.629-1.3l-.146-.022c-.079-.079-.068-.281.022-.326.393.022.9.034,1.393.034Z" transform="translate(-40.581 -9.274)" fill="#fff"></path><path id="Path_1814" data-name="Path 1814" d="M130.287,29.374a3.81,3.81,0,0,1-3.954,3.864,3.752,3.752,0,0,1-4-3.786,3.868,3.868,0,0,1,4.022-3.988,3.734,3.734,0,0,1,3.932,3.91m-6.426-.247c0,1.55.663,3.662,2.584,3.662,1.281,0,2.314-.955,2.314-3.212,0-1.7-.764-3.662-2.55-3.662-1.123,0-2.348.82-2.348,3.212" transform="translate(-44.156 -9.191)" fill="#fff"></path><path id="Path_1815" data-name="Path 1815" d="M136.2,27.412c0-1.079-.012-1.214-.54-1.27l-.292-.033a.226.226,0,0,1,.011-.314c.707-.068,1.662-.1,2.584-.1a4.714,4.714,0,0,1,2.134.382,1.764,1.764,0,0,1,.988,1.64,1.943,1.943,0,0,1-1.348,1.775c-.067.033-.045.123,0,.191a12.986,12.986,0,0,0,1.988,2.909,1.433,1.433,0,0,0,.775.348.2.2,0,0,1,.022.225,3.073,3.073,0,0,1-.741.067,2.549,2.549,0,0,1-2.348-1.483c-.3-.472-.617-1.09-.887-1.528a.629.629,0,0,0-.7-.382c-.337,0-.348.011-.348.247v1.438c0,1.191.1,1.224.628,1.292l.247.034c.079.079.068.281-.022.325-.5-.022-1-.033-1.495-.033s-1,.011-1.516.033a.219.219,0,0,1-.023-.325l.247-.034c.528-.068.629-.1.629-1.292Zm1.3,1.617c0,.359,0,.382.539.382a1.41,1.41,0,0,0,1.606-1.607,1.552,1.552,0,0,0-1.55-1.663c-.584,0-.595.034-.595.551Z" transform="translate(-48.822 -9.274)" fill="#fff"></path><path id="Path_1816" data-name="Path 1816" d="M154.2,31.231c0,.337,0,1.718.034,1.977a.43.43,0,0,1-.382.157c-.18-.236-.505-.618-1.315-1.539l-2.628-3c-.719-.831-1.09-1.247-1.281-1.415-.034,0-.034.124-.034.719v2.191a6.822,6.822,0,0,0,.2,2.213.706.706,0,0,0,.573.281l.247.033c.1.079.09.292-.022.326-.415-.022-.854-.034-1.281-.034-.472,0-.775.011-1.168.034a.23.23,0,0,1-.022-.326l.247-.056c.213-.045.416-.079.495-.258a8.814,8.814,0,0,0,.146-2.213V27.659c0-.876.012-1.056-.371-1.382a1.818,1.818,0,0,0-.595-.225l-.169-.033c-.079-.068-.067-.292.045-.326.427.045,1.045.034,1.326.034.236,0,.505-.012.775-.034a14.948,14.948,0,0,0,1.809,2.325l1.123,1.213c.472.517,1.516,1.708,1.629,1.775.034-.033.034-.089.034-.269V28.546a6.475,6.475,0,0,0-.213-2.213.684.684,0,0,0-.562-.281l-.258-.033c-.1-.079-.09-.292.022-.326.438.022.854.034,1.291.034.483,0,.775-.012,1.18-.034a.23.23,0,0,1,.022.326l-.258.056c-.213.045-.4.079-.483.258a8.185,8.185,0,0,0-.157,2.213Z" transform="translate(-52.997 -9.274)" fill="#fff"></path><path id="Path_1817" data-name="Path 1817" d="M163.185,31.523c0,1.191.1,1.224.629,1.292l.247.034c.079.079.068.281-.022.326-.495-.022-1-.034-1.494-.034s-1.022.011-1.516.034c-.09-.045-.1-.247-.022-.326l.247-.034c.528-.067.629-.1.629-1.292V27.344c0-1.191-.1-1.224-.629-1.292l-.247-.033c-.079-.079-.068-.281.022-.326q.741.034,1.516.034c.494,0,1-.012,1.494-.034.09.045.1.247.022.326l-.247.033c-.528.068-.629.1-.629,1.292Z" transform="translate(-58.096 -9.274)" fill="#fff"></path><path id="Path_1818" data-name="Path 1818" d="M169.565,30.306c-.292,0-.281,0-.382.3l-.461,1.348c-.224.663-.18.685.236.753l.326.056c.079.079.068.281-.022.325-.359-.022-.73-.022-1.191-.033-.371,0-.72.011-1.113.033a.251.251,0,0,1-.012-.325l.337-.056c.326-.056.449-.146.617-.517.135-.292.315-.764.551-1.37l1.539-4a1.952,1.952,0,0,0,.213-.82,1.963,1.963,0,0,0,.786-.539.226.226,0,0,1,.191.089c.18.505.326,1.034.505,1.539l1.617,4.707c.258.753.314.82.888.932l.168.034a.241.241,0,0,1,.012.325c-.461-.022-.876-.033-1.46-.033-.483,0-.977.022-1.371.033a.256.256,0,0,1-.033-.325l.247-.034c.4-.056.461-.123.292-.6l-.528-1.527c-.1-.3-.146-.3-.46-.3Zm1.348-.505c.314,0,.359-.022.27-.292l-.472-1.348a6.907,6.907,0,0,0-.315-.888h-.022c-.045.079-.146.359-.337.888l-.472,1.314c-.112.326-.09.326.18.326Z" transform="translate(-60.24 -9.192)" fill="#fff"></path><path id="Path_1819" data-name="Path 1819" d="M184.609,32.767a3.336,3.336,0,0,1-.337-1.708.25.25,0,0,1,.348-.045c.2.573.808,1.775,1.91,1.775a1.2,1.2,0,0,0,1.337-1.2,1.806,1.806,0,0,0-1.146-1.629l-.483-.269a2.594,2.594,0,0,1-1.584-2.168c0-1.112.831-2.056,2.472-2.056a7.476,7.476,0,0,1,1.539.236,4.715,4.715,0,0,1,.236,1.516.271.271,0,0,1-.36.034,1.6,1.6,0,0,0-1.516-1.337,1.144,1.144,0,0,0-1.269,1.18,1.669,1.669,0,0,0,1.067,1.371l.7.371a2.54,2.54,0,0,1,1.539,2.213c0,1.28-.977,2.19-2.606,2.19a3.4,3.4,0,0,1-1.842-.472" transform="translate(-66.513 -9.192)" fill="#fff"></path><path id="Path_1820" data-name="Path 1820" d="M196.227,26.5c0-.472-.012-.494-.3-.494H195.3c-1.033,0-1.337.123-1.752,1.033a.283.283,0,0,1-.36-.079c.191-.607.36-1.3.438-1.7a.141.141,0,0,1,.123-.045.131.131,0,0,1,.112.045c.056.281.213.292.977.292h4.583c.551,0,.719-.033.854-.292a.321.321,0,0,1,.135-.045.178.178,0,0,1,.146.056,7.883,7.883,0,0,0-.169,1.786.269.269,0,0,1-.348.034c-.146-.876-.36-1.09-1.561-1.09h-.64c-.292,0-.3.022-.3.494v4.853c0,1.191.1,1.224.629,1.281l.4.045c.079.079.068.281-.022.326-.651-.022-1.157-.034-1.651-.034s-1.022.012-1.741.034a.242.242,0,0,1-.023-.326l.472-.056c.528-.067.629-.079.629-1.269Z" transform="translate(-69.73 -9.103)" fill="#fff"></path><path id="Path_1821" data-name="Path 1821" d="M205.93,30.306c-.292,0-.281,0-.382.3l-.461,1.348c-.224.663-.18.685.236.753l.326.056c.079.079.068.281-.022.325-.359-.022-.73-.022-1.191-.033-.371,0-.719.011-1.112.033a.25.25,0,0,1-.011-.325l.337-.056c.326-.056.449-.146.618-.517.135-.292.314-.764.55-1.37l1.539-4a1.952,1.952,0,0,0,.213-.82,1.963,1.963,0,0,0,.786-.539.226.226,0,0,1,.191.089c.18.505.326,1.034.505,1.539l1.617,4.707c.258.753.314.82.888.932l.168.034a.241.241,0,0,1,.011.325c-.461-.022-.876-.033-1.46-.033-.483,0-.977.022-1.371.033a.256.256,0,0,1-.033-.325l.247-.034c.4-.056.461-.123.292-.6l-.528-1.527c-.1-.3-.146-.3-.46-.3Zm1.348-.505c.314,0,.359-.022.27-.292l-.472-1.348a6.907,6.907,0,0,0-.315-.888h-.022c-.045.079-.146.359-.337.888l-.472,1.314c-.112.326-.09.326.18.326Z" transform="translate(-73.367 -9.192)" fill="#fff"></path><path id="Path_1822" data-name="Path 1822" d="M217.108,26.5c0-.472-.011-.494-.3-.494h-.629c-1.033,0-1.337.123-1.752,1.033a.283.283,0,0,1-.36-.079c.191-.607.36-1.3.438-1.7a.141.141,0,0,1,.123-.045.131.131,0,0,1,.112.045c.056.281.213.292.977.292H220.3c.551,0,.719-.033.854-.292a.32.32,0,0,1,.135-.045.178.178,0,0,1,.146.056,7.886,7.886,0,0,0-.169,1.786.269.269,0,0,1-.348.034c-.146-.876-.36-1.09-1.561-1.09h-.64c-.292,0-.3.022-.3.494v4.853c0,1.191.1,1.224.629,1.281l.4.045c.079.079.068.281-.022.326-.651-.022-1.157-.034-1.651-.034s-1.022.012-1.741.034a.242.242,0,0,1-.023-.326l.472-.056c.528-.067.629-.079.629-1.269Z" transform="translate(-77.267 -9.103)" fill="#fff"></path><path id="Path_1823" data-name="Path 1823" d="M227.7,27.344c0-1.191-.1-1.236-.629-1.3l-.18-.022c-.079-.079-.067-.281.023-.326.427.022.955.034,1.449.034h2.146c.719,0,1.37-.012,1.516-.034.045.191.112,1.079.18,1.561-.045.09-.27.112-.36.045-.18-.652-.348-.922-.707-1.022a3.812,3.812,0,0,0-.9-.1h-.753c-.483,0-.483.022-.483.663v1.9c0,.292.012.3.27.3h.539c.977,0,1.146-.011,1.247-.494l.079-.382c.09-.079.3-.079.359.012-.011.3-.033.707-.033,1.123s.022.82.033,1.179c-.056.079-.269.079-.359.012l-.079-.449c-.079-.472-.27-.495-1.247-.495h-.539c-.258,0-.27.023-.27.3v1.426a2,2,0,0,0,.191,1.169c.135.157.326.236,1.269.247,1.427.011,1.674-.3,2.067-1.213a.266.266,0,0,1,.359.067,7.18,7.18,0,0,1-.472,1.629c-.495-.022-1.46-.034-2.775-.034h-1.281c-.494,0-1.18.011-1.685.034-.089-.045-.1-.247-.022-.326l.416-.045c.528-.056.629-.09.629-1.281Z" transform="translate(-81.793 -9.274)" fill="#fff"></path><path id="Path_1824" data-name="Path 1824" d="M243.1,27.344c0-1.191-.1-1.213-.629-1.3l-.191-.034a.226.226,0,0,1,.022-.314c.449.022.955.034,1.449.034s1.011-.012,1.5-.034a.226.226,0,0,1,.022.314l-.247.034c-.528.067-.629.112-.629,1.3v2.572c0,1.55.472,2.853,2.033,2.853,1.471,0,2.078-1.112,2.078-2.819v-1.4a6.439,6.439,0,0,0-.213-2.213.721.721,0,0,0-.562-.292l-.225-.034c-.1-.079-.089-.281.022-.314.382.022.809.034,1.247.034.472,0,.775-.012,1.191-.034a.217.217,0,0,1,.022.314l-.247.056c-.213.045-.415.09-.494.27a8.14,8.14,0,0,0-.157,2.213v1.337a3.738,3.738,0,0,1-.741,2.595,2.948,2.948,0,0,1-2.2.843,3.18,3.18,0,0,1-2.314-.719,3.2,3.2,0,0,1-.741-2.4Z" transform="translate(-87.432 -9.274)" fill="#fff"></path><path id="Path_1825" data-name="Path 1825" d="M262.717,31.231c0,.337,0,1.718.034,1.977a.43.43,0,0,1-.382.157c-.18-.236-.505-.618-1.315-1.539l-2.628-3c-.719-.831-1.09-1.247-1.281-1.415-.034,0-.034.124-.034.719v2.191a6.821,6.821,0,0,0,.2,2.213.706.706,0,0,0,.573.281l.247.033c.1.079.09.292-.022.326-.415-.022-.854-.034-1.281-.034-.472,0-.775.011-1.168.034a.23.23,0,0,1-.022-.326l.247-.056c.214-.045.416-.079.495-.258a8.811,8.811,0,0,0,.146-2.213V27.659c0-.876.011-1.056-.371-1.382a1.818,1.818,0,0,0-.595-.225l-.169-.033c-.079-.068-.067-.292.045-.326.427.045,1.045.034,1.326.034.236,0,.505-.012.775-.034a14.869,14.869,0,0,0,1.809,2.325l1.123,1.213c.472.517,1.516,1.708,1.629,1.775.034-.033.034-.089.034-.269V28.546a6.474,6.474,0,0,0-.213-2.213.683.683,0,0,0-.562-.281l-.258-.033c-.1-.079-.09-.292.022-.326.438.022.854.034,1.292.034.483,0,.775-.012,1.18-.034a.23.23,0,0,1,.022.326l-.258.056c-.213.045-.4.079-.483.258a8.184,8.184,0,0,0-.157,2.213Z" transform="translate(-92.166 -9.274)" fill="#fff"></path><path id="Path_1826" data-name="Path 1826" d="M271.7,31.523c0,1.191.1,1.224.629,1.292l.247.034c.079.079.068.281-.022.326-.495-.022-1-.034-1.494-.034s-1.022.011-1.516.034c-.09-.045-.1-.247-.022-.326l.247-.034c.528-.067.629-.1.629-1.292V27.344c0-1.191-.1-1.224-.629-1.292l-.247-.033c-.079-.079-.068-.281.022-.326q.741.034,1.516.034c.494,0,1-.012,1.494-.034.09.045.1.247.022.326l-.247.033c-.528.068-.629.1-.629,1.292Z" transform="translate(-97.266 -9.274)" fill="#fff"></path><path id="Path_1827" data-name="Path 1827" d="M280.423,30.355c-.461,1.022-.977,2.336-1.168,2.91a.279.279,0,0,1-.191.056.436.436,0,0,1-.214-.056,14.342,14.342,0,0,0-.517-1.472l-1.966-4.729c-.314-.753-.415-.91-.865-1l-.27-.056c-.079-.079-.079-.281.034-.314.438.022.921.034,1.359.034.506,0,.887-.012,1.483-.034a.213.213,0,0,1,.011.326l-.281.067c-.247.056-.337.112-.337.2a8.462,8.462,0,0,0,.55,1.494l.809,2c.2.505.505,1.168.617,1.426.607-1.415,1.281-2.966,1.876-4.493.18-.45.146-.539-.191-.618l-.326-.079a.241.241,0,0,1,.022-.326c.461.022.843.034,1.2.034.4,0,.775-.012,1.09-.034.09.056.079.236.023.326l-.281.056a.932.932,0,0,0-.7.46c-.314.539-.629,1.292-1.146,2.426Z" transform="translate(-99.326 -9.274)" fill="#fff"></path><path id="Path_1828" data-name="Path 1828" d="M289.268,27.344c0-1.191-.1-1.236-.629-1.3l-.18-.022c-.079-.079-.067-.281.022-.326.427.022.955.034,1.449.034h2.145c.719,0,1.371-.012,1.516-.034.045.191.112,1.079.18,1.561-.045.09-.27.112-.36.045-.18-.652-.348-.922-.707-1.022a3.812,3.812,0,0,0-.9-.1h-.753c-.483,0-.483.022-.483.663v1.9c0,.292.012.3.27.3h.539c.977,0,1.146-.011,1.247-.494l.079-.382c.089-.079.3-.079.359.012-.011.3-.033.707-.033,1.123s.022.82.033,1.179a.32.32,0,0,1-.359.012l-.079-.449c-.079-.472-.27-.495-1.247-.495h-.539c-.258,0-.27.023-.27.3v1.426a2,2,0,0,0,.191,1.169c.135.157.326.236,1.269.247,1.427.011,1.674-.3,2.067-1.213a.267.267,0,0,1,.36.067,7.179,7.179,0,0,1-.472,1.629c-.495-.022-1.46-.034-2.775-.034h-1.281c-.494,0-1.18.011-1.685.034-.089-.045-.1-.247-.022-.326l.416-.045c.528-.056.629-.09.629-1.281Z" transform="translate(-104.016 -9.274)" fill="#fff"></path><path id="Path_1829" data-name="Path 1829" d="M299.991,27.412c0-1.079-.012-1.214-.539-1.27l-.292-.033a.226.226,0,0,1,.012-.314c.707-.068,1.662-.1,2.584-.1a4.714,4.714,0,0,1,2.134.382,1.764,1.764,0,0,1,.988,1.64,1.943,1.943,0,0,1-1.348,1.775c-.067.033-.045.123,0,.191a12.986,12.986,0,0,0,1.988,2.909,1.433,1.433,0,0,0,.775.348.2.2,0,0,1,.022.225,3.074,3.074,0,0,1-.741.067,2.549,2.549,0,0,1-2.348-1.483c-.3-.472-.617-1.09-.887-1.528a.629.629,0,0,0-.7-.382c-.337,0-.348.011-.348.247v1.438c0,1.191.1,1.224.629,1.292l.247.034c.079.079.068.281-.022.325-.495-.022-1-.033-1.494-.033s-1,.011-1.517.033a.22.22,0,0,1-.022-.325l.247-.034c.528-.068.629-.1.629-1.292Zm1.3,1.617c0,.359,0,.382.539.382a1.41,1.41,0,0,0,1.606-1.607,1.552,1.552,0,0,0-1.55-1.663c-.584,0-.6.034-.6.551Z" transform="translate(-107.944 -9.274)" fill="#fff"></path><path id="Path_1830" data-name="Path 1830" d="M311.123,32.767a3.335,3.335,0,0,1-.337-1.708.25.25,0,0,1,.348-.045c.2.573.808,1.775,1.909,1.775a1.2,1.2,0,0,0,1.337-1.2,1.806,1.806,0,0,0-1.146-1.629l-.483-.269a2.594,2.594,0,0,1-1.584-2.168c0-1.112.831-2.056,2.472-2.056a7.475,7.475,0,0,1,1.539.236,4.714,4.714,0,0,1,.236,1.516.271.271,0,0,1-.36.034,1.6,1.6,0,0,0-1.516-1.337,1.144,1.144,0,0,0-1.269,1.18,1.669,1.669,0,0,0,1.067,1.371l.7.371a2.539,2.539,0,0,1,1.539,2.213c0,1.28-.977,2.19-2.606,2.19a3.4,3.4,0,0,1-1.842-.472" transform="translate(-112.179 -9.192)" fill="#fff"></path><path id="Path_1831" data-name="Path 1831" d="M322.3,31.523c0,1.191.1,1.224.629,1.292l.247.034c.079.079.068.281-.022.326-.495-.022-1-.034-1.494-.034s-1.023.011-1.517.034c-.09-.045-.1-.247-.022-.326l.247-.034c.528-.067.629-.1.629-1.292V27.344c0-1.191-.1-1.224-.629-1.292l-.247-.033c-.079-.079-.068-.281.022-.326q.741.034,1.517.034c.494,0,1-.012,1.494-.034.09.045.1.247.022.326l-.247.033c-.528.068-.629.1-.629,1.292Z" transform="translate(-115.53 -9.274)" fill="#fff"></path><path id="Path_1832" data-name="Path 1832" d="M329.4,26.5c0-.472-.011-.494-.3-.494h-.629c-1.033,0-1.337.123-1.752,1.033a.283.283,0,0,1-.36-.079c.191-.607.36-1.3.438-1.7a.14.14,0,0,1,.123-.045.131.131,0,0,1,.112.045c.056.281.213.292.977.292h4.583c.55,0,.719-.033.854-.292a.32.32,0,0,1,.135-.045.178.178,0,0,1,.146.056,7.884,7.884,0,0,0-.169,1.786.269.269,0,0,1-.348.034c-.146-.876-.36-1.09-1.561-1.09h-.64c-.292,0-.3.022-.3.494v4.853c0,1.191.1,1.224.629,1.281l.4.045c.079.079.068.281-.022.326-.651-.022-1.157-.034-1.651-.034s-1.022.012-1.741.034a.242.242,0,0,1-.023-.326l.472-.056c.528-.067.629-.079.629-1.269Z" transform="translate(-117.8 -9.103)" fill="#fff"></path><path id="Path_1833" data-name="Path 1833" d="M341.781,30.86a2.343,2.343,0,0,0-.359-1.393L340.073,26.8c-.247-.483-.337-.606-.842-.719l-.292-.067c-.068-.079-.045-.292.045-.326q.725.034,1.415.034c.494,0,1.18-.012,1.438-.034a.229.229,0,0,1,.022.326l-.337.056c-.18.033-.236.056-.236.146a1.612,1.612,0,0,0,.2.584c.438.966.854,1.876,1.3,2.7.461-.854.876-1.64,1.315-2.483a2.5,2.5,0,0,0,.3-.753c0-.112-.1-.146-.258-.168l-.337-.079a.223.223,0,0,1,.033-.326c.495.022.843.034,1.18.034s.708-.012,1.067-.034a.23.23,0,0,1,.022.326l-.326.067c-.506.1-.64.3-1.224,1.292-.382.64-.719,1.258-1.067,1.887a2.472,2.472,0,0,0-.415,1.584v.674c0,1.191.1,1.224.652,1.281l.427.045c.079.079.067.281-.023.326-.7-.022-1.2-.034-1.7-.034-.516,0-1.022.011-1.629.034-.089-.045-.1-.247-.022-.326l.36-.045c.528-.068.629-.09.629-1.281Z" transform="translate(-122.326 -9.274)" fill="#fff"></path><path id="Path_1834" data-name="Path 1834" d="M1.564,50.738V5.074l.094-.031A60.733,60.733,0,0,1,19.206,2.074c.118,0,.232,0,.344,0A61.743,61.743,0,0,1,37.082,5.064l.089.033V50.753Zm.275-.275,35.061.012V5.292A61.76,61.76,0,0,0,19.546,2.348v0c-.112,0-.224,0-.339,0A60.577,60.577,0,0,0,1.839,5.27Z" transform="translate(-0.565 -0.748)" fill="#fff"></path><path id="Path_1835" data-name="Path 1835" d="M45.553,15.475c-1.952-.867-10.358-5.15-14.7-8.958a24.4,24.4,0,0,1-5.4,2.855l.259.341A53.72,53.72,0,0,0,30.835,6.8a82.968,82.968,0,0,0,14.728,9.29Z" transform="translate(-9.188 -2.352)" fill="#fff"></path><path id="Path_1836" data-name="Path 1836" d="M13.927,11.34A116.563,116.563,0,0,1,1.769,17l0,.407s9.329-3.975,12.162-6.068" transform="translate(-0.637 -4.093)" fill="#fff"></path><path id="Path_1837" data-name="Path 1837" d="M3.416,18.974l-1.5-.005,1.663-.056Z" transform="translate(-0.693 -6.826)" fill="#fff"></path><path id="Path_1838" data-name="Path 1838" d="M7.35,16.056,2.33,15l6.081.578Z" transform="translate(-0.841 -5.415)" fill="#fff"></path><path id="Path_1839" data-name="Path 1839" d="M10.047,13.5,3.16,10.915l7.981,2.066Z" transform="translate(-1.14 -3.939)" fill="#fff"></path><path id="Path_1840" data-name="Path 1840" d="M12.214,11.228,4.568,6.852l8.765,3.8Z" transform="translate(-1.649 -2.473)" fill="#fff"></path><path id="Path_1841" data-name="Path 1841" d="M15.3,9.73l-5.913-5,.283-.072L16.413,9.1Z" transform="translate(-3.387 -1.683)" fill="#fff"></path><path id="Path_1842" data-name="Path 1842" d="M18.013,8.165,13.681,3.278l.468-.089L18.9,7.51,15.92,2.9l.567-.1L19.9,7.043,17.926,2.6l.671-.063,2.434,4.2L19.826,2.379l.656-.036,1.572,4.014-.473-4.085.725-.026.913,4.071.2-4.11.553-.01.187,4.11.918-4.089.724.049L25.386,5.8a19.809,19.809,0,0,1-4.112,2.017c.64,1.012,1.418,1.366,3.113,2.023a23.218,23.218,0,0,0,2.642.934,2.519,2.519,0,0,1,1.137,1.114,14.253,14.253,0,0,1-3.17-1c-1.13-.5-3.107-1.213-4.11-1.61s-2.873-1.109-2.873-1.109" transform="translate(-4.938 -0.793)" fill="#fff"></path><path id="Path_1843" data-name="Path 1843" d="M34.693,5.584l1.678-2.9.661.1-1.539,3.46Z" transform="translate(-12.522 -0.97)" fill="#fff"></path><path id="Path_1844" data-name="Path 1844" d="M36.293,6.546,39.078,3.1l.559.087L37.06,7.14Z" transform="translate(-13.1 -1.118)" fill="#fff"></path><path id="Path_1845" data-name="Path 1845" d="M37.8,7.516l4.151-3.794.471.079L38.6,8.118Z" transform="translate(-13.645 -1.343)" fill="#fff"></path><path id="Path_1846" data-name="Path 1846" d="M39.4,8.605,45.5,4.613l.251.081-5.4,4.55Z" transform="translate(-14.223 -1.665)" fill="#fff"></path><path id="Path_1847" data-name="Path 1847" d="M41.508,10.333,49.56,6.812l-7.152,4.13Z" transform="translate(-14.982 -2.459)" fill="#fff"></path><path id="Path_1848" data-name="Path 1848" d="M43.94,12.826l7.416-1.911L44.824,13.36Z" transform="translate(-15.86 -3.939)" fill="#fff"></path><path id="Path_1849" data-name="Path 1849" d="M47.221,15.554l5.852-.565-4.953,1.047Z" transform="translate(-17.044 -5.41)" fill="#fff"></path><path id="Path_1850" data-name="Path 1850" d="M53.6,18.877l2.035.081-1.808.035Z" transform="translate(-19.347 -6.813)" fill="#fff"></path><path id="Path_1851" data-name="Path 1851" d="M32.345,5.77,33.58,2.6l.684.06-.723,2.614-1.2.567Z" transform="translate(-11.675 -0.938)" fill="#fff"></path><path id="Path_1852" data-name="Path 1852" d="M22.568,54.844c-1.561-.562-1.508-1.916-1.614-3.609-.114-1.8-.276-3.317-.523-5.52-.075-.672-.107-1.169-.111-1.543a2.4,2.4,0,0,0,.992-.5,2.2,2.2,0,0,1,.791-.574c.3-.083-.282.46-.642.691a1.417,1.417,0,0,0-.56,1.208,2.776,2.776,0,0,0,.212,1.06c.016-.149.364-.413.893-.944a.987.987,0,0,0,.15-.2,8.007,8.007,0,0,0,.973-.215c.328-.116.544-.529.658-.728s.12-.264.648-.563.3,1.458-.594,2.309a4.409,4.409,0,0,1-.536.564,2.046,2.046,0,0,0-1.079.537,7.405,7.405,0,0,0-.651,1.348,2.66,2.66,0,0,0,.9-.176c.2-.139.945-.311.99-1.2.005-.042.013-.113.024-.181,0-.022.007-.044.013-.069a5.936,5.936,0,0,1,.723-1c.148-.146.213-.081.364.252s-.018.971.114,1.683,1.207,1.157,1.207,1.157-.083-.3-.117-.5.017-.725-.016-1.005a3.755,3.755,0,0,0-.86-1.223.84.84,0,0,1-.311-.629,1.608,1.608,0,0,1,.192-.613,2.8,2.8,0,0,0-.729-3.064c-.378-.28.926-.3,1.143-.255s.184.874.152,1.354a1.394,1.394,0,0,0,.331,1.127c.067.078.141.157.215.231a10.344,10.344,0,0,0-.849.851c.033-.049,1,.118,1.6.031s.688-.669.787-.8a1.456,1.456,0,0,1,.727-.348c.281-.047.3.038.017.613s-.664,1.684-.711,1.751a3.471,3.471,0,0,1-.645.75,1.277,1.277,0,0,0-.544.787c-.018.233.049,1.52.049,1.52a9.544,9.544,0,0,1,.744-.692,1.371,1.371,0,0,0,.53-.777,3.649,3.649,0,0,0,0-1.271,2.622,2.622,0,0,1,.345-.876,3.054,3.054,0,0,0,.2-.481s.3-.679.395-.827c.061-.089.168-.035.268.025a6.975,6.975,0,0,1,.758,1.564,1.147,1.147,0,0,1-.056,1.03c-.05.077-.332.093-.53.068a1.633,1.633,0,0,0-.651.2c-.231.081-.515.676-.629.908a10.1,10.1,0,0,0,1.378-.383,2.156,2.156,0,0,0,.578-.741,3.241,3.241,0,0,0,.126-.372,3.657,3.657,0,0,1,.516.273.809.809,0,0,0-.185.5.828.828,0,1,0,.829-.827.814.814,0,0,0-.49.176c-.054-.116-.662-.311-.664-.423a3.156,3.156,0,0,0-.229-.951c-.091-.24.114-.079.191-.029s.079.31.113.412c.122.3.189.44.941.56a.76.76,0,0,1,.336.137s0-.229-.019-.367c-.04-.326-.465-.571-.652-.674a2.195,2.195,0,0,0-.681-.2.887.887,0,0,1-.409-.343c-.045-.086-.144-.249-.218-.366.067.029.121.056.121.056a1.522,1.522,0,0,0,1.107.514,6.505,6.505,0,0,0,1.07-.114c.2,0,.617-.032.12-.316a5.065,5.065,0,0,0-1.353-.579,6.784,6.784,0,0,0-.977.249c-.2.05-.48-.281-.48-.281s.53-.925.546-1.008a3.82,3.82,0,0,0,.3-1.724l.032.033a4.82,4.82,0,0,1,.5,1.242,2,2,0,0,0,.05.733c.1.376,1.3.81,1.636.92s-.176-.995-.176-.995a2.114,2.114,0,0,0-.833-.734c-.106-.046-.554-.095-.581-.187s-.349-.818-.125-.656a2.722,2.722,0,0,0,1.2.557,1.17,1.17,0,0,1,.587.4,3.148,3.148,0,0,0,.474.68,2.507,2.507,0,0,0,1.717.135,10.638,10.638,0,0,0-1.032-1.077,2.651,2.651,0,0,0-1.232-.04c-.055.019-.171-.043-.272-.107a.743.743,0,0,0,.181-.045,1.97,1.97,0,0,0,.92-.336,11.9,11.9,0,0,0,.778-1.292,4.878,4.878,0,0,0-1.121.266,1.049,1.049,0,0,0-.371.722c-.031.212-.125.495-.218.524a1.241,1.241,0,0,1-1.065-.235,4.047,4.047,0,0,1-1.058-.843c-.006-.011-.024-.015-.035-.023a3.821,3.821,0,0,0-.4-1.159c-.016-.048.067-.076.181-.091-.007.019,0,.039.042.058a.547.547,0,0,1,.266.376,6.026,6.026,0,0,0,.236.6c.124.289,1.033.644.988.536a7.835,7.835,0,0,0-.382-.995,1.894,1.894,0,0,0-.813-.366c-.052,0-.118-.137-.158-.226.078,0,.155,0,.217,0a6.492,6.492,0,0,0,1.188.382,3.109,3.109,0,0,0,1.886-.725,7.606,7.606,0,0,1-1.556-.515c-.575-.251-1.337.548-1.337.548a7.159,7.159,0,0,1-.81.114c-.215,0-.542-.633-.891-1.009a4.637,4.637,0,0,0-1.138-.776c-.15-.082.017-.181.131-.2a4.274,4.274,0,0,1,1.091-.015,1.141,1.141,0,0,0,1.006-.316c.083-.084.3-.289.5-.482.018.035.031.061.052.1a1.651,1.651,0,0,1,.132.311.838.838,0,0,0-.367.682.849.849,0,1,0,.851-.852.777.777,0,0,0-.121.024c-.065-.059-.139-.129-.234-.231A1.584,1.584,0,0,1,30,36.486c.151-.155.256-.274.2-.267s-.181,0-.364,0a3.884,3.884,0,0,1-.194-.424,15.922,15.922,0,0,1,1.992.291,6.174,6.174,0,0,0,1.242.513c.4.1.644.579,1.074.845a1.823,1.823,0,0,0,1.238.148c.23-.049.874-.082.874-.082s-.492-.515-.791-.814a1.316,1.316,0,0,0-1.155-.343,6.833,6.833,0,0,1-1.177.065c-.247-.065-.939-.5-1.316-.644s.937-1.061,1.168-1.144a1.09,1.09,0,0,1,.729.1,4.378,4.378,0,0,0,.99.6,1.738,1.738,0,0,0,1.294-.251c-.213,0-.451-.312-.778-.64s-.909-.185-1.173-.118a2.679,2.679,0,0,1-.744.118c-.2-.02-.017-.134.066-.268s.247-.1.96-.281.725-.428.956-.875a8.511,8.511,0,0,0,.348-.909c-1.685.4-1.716.746-1.952.96a1.143,1.143,0,0,0-.194.305,13.086,13.086,0,0,0-.813-1.281,2.2,2.2,0,0,0-1.24-.542,6.794,6.794,0,0,1-.9-.757c-.3-.331.754-.935,1.134-1.126.433-.22.505-.135.714-.046a1.03,1.03,0,0,1,.649.515c.208.4,1.068.364,1.3.289a4.857,4.857,0,0,1,.9-.118c-.826-.828-1.353-.875-1.671-.828a1.723,1.723,0,0,1-1.123-.017c-.208-.068-.111-.133.05-.163A3.1,3.1,0,0,0,33,29a.8.8,0,0,0,.712.446.808.808,0,1,0-.808-.809.8.8,0,0,0,.035.175.508.508,0,0,1-.2.12c-.181.05-.268-.005-.26-.15a2.7,2.7,0,0,1,.114-.449c.03-.133.357-.343.536-.659s-.044-.93-.058-1.1c-.008-.081-.04-.3-.075-.481.039-.031.049-.05,0-.042h-.006c-.035-.169-.072-.293-.094-.215a.983.983,0,0,1-.1.183c-.259-.081-.658-.288-.907-.4a2.487,2.487,0,0,0-1.474.314.915.915,0,0,1-.628.3c-.395.05-.348-.063-.348-.063l.574-.463h0c.005-.007.013-.012.018-.018l.167-.135,0-.016a1.144,1.144,0,0,1,.51-.212,2.481,2.481,0,0,0,1.119-.39c.45-.278.789-1.954.615-1.881a13.831,13.831,0,0,0-1.647.733,3.182,3.182,0,0,0-.543,1.34c-.024.02-.252.215-.481.394l-.027.012,0,.005c-.076.059-.152.116-.218.163-.278.2-.378.117-.345-.13s-.033-.183.327-.709a1.756,1.756,0,0,0,.05-1.621c-.164-.4-.311-.78-.363-.923a7.032,7.032,0,0,0-.675,1.736,2.159,2.159,0,0,0,.446,1.3l.017.908a14.151,14.151,0,0,1-1.273,1.04c-.386.266-.43.123-.513-.027a.84.84,0,0,1-.176-.536,1.743,1.743,0,0,1,.249-.588,3.706,3.706,0,0,0,.744-.757,2.057,2.057,0,0,0,.29-1.068c.033-.312.117-.974.117-.974a3.789,3.789,0,0,1-.615.561,2.232,2.232,0,0,0-.6.628c-.278.346-.093,1.474-.093,1.474a2.126,2.126,0,0,1-.3.5c-.181.215-.214.05-.343-.216a3.7,3.7,0,0,1-.249-1.27,1.9,1.9,0,0,1,.161-.713,2.494,2.494,0,0,0-.015-1.056c-.049-.5-.808-.991-1.023-1.273a3.359,3.359,0,0,1-.1,1.341c-.131.673.569,1.2.666,1.378a2.961,2.961,0,0,0,.229,1.614c.166.346-.528.017-.6-.07-.394-1.483-2.826-.842-2.943-.513s1.969,1.752,2.993.829c.169-.155.629.183.974.511a4.747,4.747,0,0,1,.713,1.352c.166.328-.249.269-.4.2-.076-.033-.143-.053-.213-.078a2.112,2.112,0,0,0-.248-.45,2.13,2.13,0,0,0-.321.325,1.557,1.557,0,0,0-.985.3c-.266.149-.478.346-.645.415a3.39,3.39,0,0,0,1.279.5,5.1,5.1,0,0,0,.392,1.2c.048.282-.249.2-.366.015a7.4,7.4,0,0,0-1.024-.673.687.687,0,0,1-.364-.661,8.482,8.482,0,0,0-.049-1.323c-.082-.727-1.04-1.388-1.273-1.5a13.45,13.45,0,0,1-.015,1.651c.065.463.959,1.022,1.157,1.373s-.529.214-.978-.052a15.884,15.884,0,0,1-1.651-1.224,1.058,1.058,0,0,1-.249-.679,3.489,3.489,0,0,0-.527-1.02c-.2-.3-1.009-.465-1.191-.532a.922.922,0,0,1-.325-.227s.046.2.092.461a3.449,3.449,0,0,0,.38,1.2c.312.6,1.208.612,1.373.745a13.62,13.62,0,0,0,1.338.972c.613.383.729.649.447.6a5.98,5.98,0,0,0-1.57-.033,1.236,1.236,0,0,0-.467.215,4.365,4.365,0,0,0-1.169-1.885c-.091-.127-.236-.307-.4-.508-.052-.218-.151-.5-.205-.667a2.378,2.378,0,0,0-.895-.792c-.078-.036-.235-.1-.41-.16l0,0c-.243-.166-.311-.263-.278-.367a6.726,6.726,0,0,1,.957-.64c.2-.133.58.05.827.148a4.041,4.041,0,0,0,1.088.444,3.051,3.051,0,0,0,.961-.181.613.613,0,0,0,.46-.263s-.163-.066-.544-.248a3.477,3.477,0,0,0-1.026-.35,1.315,1.315,0,0,0-.776.283,1.682,1.682,0,0,1-.654,0c-.175-.072.611-.478.943-.573a.783.783,0,0,0,1.322-.571.787.787,0,1,0-1.573,0,.772.772,0,0,0,.043.218,3.118,3.118,0,0,1-.806.677c-.208.116-.166-.114-.114-.282s.162-.181.4-.361.229-.348.382-.58a.685.685,0,0,0,.049-.544c-.281.445-.946.445-1.11.461a2.637,2.637,0,0,0,.084.907l-.054.612a7.382,7.382,0,0,1-.869.546c-.3.134-.382-.246-.432-.546s-.13-.871,0-1.04a1.4,1.4,0,0,1,.675-.426,7.923,7.923,0,0,0,1.259-.265c.459-.137.479-.467.66-.812a2.285,2.285,0,0,1,.38-.544,1.755,1.755,0,0,0-.61-.019,3.94,3.94,0,0,0-1.355.58,1.583,1.583,0,0,0-.463.858,3.435,3.435,0,0,0-.627.313c-.415.248-.333,1.322-.233,1.686s-.015.329-.233.229-.678-.21-.776-.26a5.209,5.209,0,0,1-.8-.4,3.6,3.6,0,0,0,.109-.443,3.211,3.211,0,0,0-.218-1.338,3.563,3.563,0,0,1-.6.695l-.015-.033a3.294,3.294,0,0,0,.133-.649c.036-.329-.068-.3-.262-.409a.329.329,0,0,1-.182-.3,1.2,1.2,0,0,0-.428.593c-.2.461.461.89.461.89s.026.059.065.141a1.386,1.386,0,0,0-.231.291,4,4,0,0,0,.133,1.319,2.386,2.386,0,0,0-.05,1.456,5.374,5.374,0,0,1-.229,2.091c-.13.432-.995-.586-1.224-.883a2.175,2.175,0,0,1-.316-.963,3.853,3.853,0,0,1,.5-1.2,1.275,1.275,0,0,0-.1-1.2c-.131-.28-.349-.929-.349-.929a16.472,16.472,0,0,0-.725,1.571c-.116.4.382,1.208.5,1.405a.642.642,0,0,1-.017.5s-.695-1.239-.726-1.372a1.984,1.984,0,0,1,.114-.794c.086-.2.267-.477.383-.712s-.035-.546-.116-.824-.215-.677-.278-.925c0,.162-.519.809-.668,1.306s.413,1.223.413,1.223a5.323,5.323,0,0,1-.017.707c-.03.233-.56-.214-.742-.528a1.63,1.63,0,0,0-.857-.692A2.448,2.448,0,0,0,8.3,24.9a2.477,2.477,0,0,1,.348.447,1.746,1.746,0,0,0,1.06.647,3.491,3.491,0,0,1,1.1.245,1.055,1.055,0,0,1,.417.528c.1.181.347.643.6,1.107s-.068.514-.2.4a4.353,4.353,0,0,1-.513-.562,1.945,1.945,0,0,0-.893-.512,5.566,5.566,0,0,0-1.57.066c.33.116,1.026,1.045,1.474,1.258a5.7,5.7,0,0,0,1.8.081c.578.033.578.332.806.564s-.03.347-.278.426-.412.085-.81.22a2.983,2.983,0,0,0-1.288,1.238c-.181.43-.084.38.068.28s1.041-.033,1.3-.2a1.585,1.585,0,0,0,.581-.811,1.046,1.046,0,0,1,.491-.624c.218-.118.037.64-.049,1.136a2.452,2.452,0,0,0,.026.793,2.679,2.679,0,0,0-.767-.3,1.862,1.862,0,0,0-.9.266c-.6.143-.891,1.056-.971,1.308a4.785,4.785,0,0,0-.177.515l-.009.056c-.346-.52-.657-1.027-.865-1.414a1.38,1.38,0,0,1,.128-.771,1.865,1.865,0,0,0,.5-1.24A7.618,7.618,0,0,0,9.247,28.6a6.438,6.438,0,0,0-.512.828,2.211,2.211,0,0,0-.1,1.3,2.875,2.875,0,0,1,.249.793,1.767,1.767,0,0,0,.043.207c-.015-.031-.031-.066-.043-.093-.254-.606-.785-2.2-1.05-3a.871.871,0,1,0-.406.1c.018,0,.035,0,.052-.005.12.483.291,1.021.476,1.548a1.916,1.916,0,0,0-.215-.16c-.322-.2-.283-.243-.611-.563A2.214,2.214,0,0,0,5.9,29.094a6.674,6.674,0,0,0-.962.11,7.371,7.371,0,0,0,1.1,1.034,1.848,1.848,0,0,0,1.332.079,1.209,1.209,0,0,1,.649.16,23.735,23.735,0,0,0,1.022,2.471c.2.33-.378.364-.724.378a1.026,1.026,0,0,1-.744-.166,1,1,0,0,1-.384-.546c-.031-.147-.179-.576-.327-1.005s-.662-.58-.959-.761-.759-.3-.712-.185a3.65,3.65,0,0,1,.215.828,1.745,1.745,0,0,0,.663,1.01,4.112,4.112,0,0,0,1.138.53c.382.178.066.328-.579.214A9.872,9.872,0,0,1,5.364,32.9c-.3-.081-.2-.334-.265-.528a4.679,4.679,0,0,1-.082-.879,1.459,1.459,0,0,0-.266-.828,4.713,4.713,0,0,0-.837-.755s.013.693.063,1.2.7.976.878,1.127a.963.963,0,0,1,.228.528L4.8,32.637l-.3.112s.708.249.907.346-.129.183-.444.316-.5-.015-.976.032-.773.71-.908.9a3.379,3.379,0,0,0,1.421-.019c.23-.067.662-.644.924-.96s.465,0,.878.067a14.121,14.121,0,0,0,1.752.151c.495,0-.282.3-.647.279a2.093,2.093,0,0,0-1.175.415,2.814,2.814,0,0,0-.706,1.123,8.334,8.334,0,0,1,1.385-.117c.33-.034.679-.628.879-.939a2.023,2.023,0,0,1,.312-.45,1.9,1.9,0,0,1,.808-.41c.262-.035.53.081.713.512a7.723,7.723,0,0,0,.833,1.267,6.607,6.607,0,0,0-.69.439c-.15.114-.3-.12-.681.3A5.251,5.251,0,0,0,8.2,37.5a4.546,4.546,0,0,0,1.142-.432,1.78,1.78,0,0,0,.594-1.04c.084-.18.378-.628.344-.414s.05.78.018,1.009a.6.6,0,0,1-.035.136.809.809,0,1,0,.343-.081.177.177,0,0,0-.018,0,.669.669,0,0,1-.09-.307c0-.256-.088-.813.063-.985.189.242.381.475.551.667s.447.523.767.913c.011.307.038.82.076,1.283.05.612.577.664.824.946a.763.763,0,0,1,.185.612s.042-.007.093-.018c-.186.058-.366.108-.477.147-.36.133-.808-.328-1.07-.592a4.547,4.547,0,0,0-3.074-.78,5.494,5.494,0,0,0-1.688.571.721.721,0,0,1,.139-.482,6.39,6.39,0,0,0,.36-.717c.173-.348-.247-1.49-.316-1.362a10.053,10.053,0,0,0-.607,1.18,2.436,2.436,0,0,0,.329,1.055c.041.05-.03.23-.08.341a.931.931,0,0,1-.571-.495,8.321,8.321,0,0,0-.647-.877c-.312-.427-1.948-.619-1.836-.457a13.589,13.589,0,0,0,1.049,1.456,3.225,3.225,0,0,0,1.479.261c.084-.015.249.166.353.293-.194.116-.341.214-.428.26a10.544,10.544,0,0,0-1.57.562,2.464,2.464,0,0,0-.658,1.307c.052-.148.362-.1.871-.164a1.433,1.433,0,0,0,.22-.05,2.439,2.439,0,0,0,0,.59c.195,1.233.724,1.038,1,1.269a7.389,7.389,0,0,1,.738.879c.33.378-.171.134-.388.119a1.512,1.512,0,0,1-.692-.449,2.277,2.277,0,0,0-1.187-.262c-.348,0-1.09.481-.929.433s.647.507,1.042.742,1.109,0,1.454-.1a1.553,1.553,0,0,1,1.287.132,4.989,4.989,0,0,0,2.249.481c.427-.068.018.181-.068.262a2.241,2.241,0,0,1-.767.109.832.832,0,0,0-.268-.048.863.863,0,0,0-.856.787c-.017.036-.02.066-.006.086a.858.858,0,1,0,1.7-.172c.163-.238.309-.488.382-.576a1.443,1.443,0,0,1,.842-.5c.394-.063-.084.513-.334.943s-.343.56-.607.71a4.713,4.713,0,0,0-1.144.991,3.294,3.294,0,0,0-.131,1.4,5.962,5.962,0,0,0,1.326-.524c.381-.265.379-1.473.428-1.7a11.819,11.819,0,0,0,1.1-2.55c.118-.378.1.48.1.48a8.211,8.211,0,0,0-.545,1.553c-.132.681.612,1.422.612,1.422a4.1,4.1,0,0,1,.3-.8,1.31,1.31,0,0,0,.066-.879,5.126,5.126,0,0,1-.365-.959c-.015-.3.132.1.248.563s1.537,1.521,1.75,1.685c.546,1.29,2.38.759,2.38.759s-.858-.692-1.09-.958-1.009-.066-1.192-.066a3.9,3.9,0,0,1-1.157-.943A3.1,3.1,0,0,1,11.43,44.1a5.663,5.663,0,0,1,.709-2.2c.089-.248.135-.309.167-.242-.186.533-.27,1.145-.167,1.085.047-.028.174-.1.332-.186.038.139.078.269.111.367.083.229.481.546.567.927a.364.364,0,0,1-.081.309.8.8,0,0,0-.435-.141.818.818,0,1,0,.821.82.808.808,0,0,0-.3-.619c.07-.127.136-.236.157-.27.047-.083.442.658.626.989a2.384,2.384,0,0,0,.645,1.7,3.509,3.509,0,0,0,1.422.678,6.391,6.391,0,0,1-.368-1.387c-.049-.362-.673-.644-1.022-.826a1.7,1.7,0,0,1-.71-.626c.378.261-.991-1.472-1.054-1.673s.031-.314.36-.262.463.4.53.529a1.71,1.71,0,0,0,.394,1.172,4.323,4.323,0,0,0,1.358.613s-.513-1.275-.629-1.472-.661-.346-.841-.43-.382-.43-.382-.43l.264.017a5.869,5.869,0,0,0,1.355.578,2.848,2.848,0,0,0,1.52-.429c.2-.083.217-.133.086-.149a8.038,8.038,0,0,0-1.619-.595,1.666,1.666,0,0,0-1.223.362,5.245,5.245,0,0,1-1.1-.011,4.639,4.639,0,0,0,.753-.5,2.236,2.236,0,0,0,.394-1.126c-.012-.1.456-.44.651-.575.072.054.132.107.176.146a29.28,29.28,0,0,1,2.334,2.267,2.423,2.423,0,0,1,.49,1.993c.018.395-.04,3.5-.04,4.707,0,1.113.316,4.861-2.206,5.707-5.985.667-13.608,2.42-13.608,2.42v.382H37.032V57.34a133.358,133.358,0,0,0-14.464-2.5M12.057,41.49a8.2,8.2,0,0,0-.784,1.607.149.149,0,0,0-.085-.052A4.707,4.707,0,0,1,9.8,42.357c-.687-.449-.739-.871-.755-.982s.235-.343.438-.478.288-.426.439-.687-.056-1.022-.135-1.329a12.082,12.082,0,0,0-.959,1.426,2.223,2.223,0,0,0,.093,1.109c.029.738,1.03,1.288,1.3,1.437s-.04.164-.152.177a2.38,2.38,0,0,1-.644-.314,1.36,1.36,0,0,0-.463-.069s-1.191.355-.916.642a1.641,1.641,0,0,0,1.314.233,1.937,1.937,0,0,0,.779-.343,1.039,1.039,0,0,1,.642,0c.091.036.261.092.405.139-.026.073-.051.143-.077.219a1.679,1.679,0,0,1-1.749,1.343,2.058,2.058,0,0,1-1.407-.3c-.2-.214-.152-.627-.152-.978s-.16-.461-.395-.794a2.23,2.23,0,0,0-.575-.543,3.872,3.872,0,0,0,.065.959c.1.412.559.629.693.923s.231.4-.149.282-.76-.725-.926-1.009a2.75,2.75,0,0,1-.231-1.254c.018-.416-.314-.6-.66-.84a4.063,4.063,0,0,1-.346-.277c.1-.065.194-.13.295-.187.266-.151.447-.828.6-1.125s.907-.629,2.329-.974,2.4.511,3.271,1.14a1.041,1.041,0,0,1,.282,1.585m8.317-.538c-.148-.056-.228-.249-.256-.562-.025-.21-.023-1.7,0-3.294a7.21,7.21,0,0,1,.167-1.468c.2.373.373.737.5,1.028a9.232,9.232,0,0,1,.957,3.367.9.9,0,0,1-.509.687,1.114,1.114,0,0,1-.857.242m2.3-1.369c-.3.264-.429-.11-.444-.243s-.268-.942-.32-1.14-.28-.856-.28-.856a4.3,4.3,0,0,0-.3-.743,3.123,3.123,0,0,0,2.019.312.447.447,0,0,1,.5.18,2,2,0,0,1,.316,1.049c0,.344-1.192,1.178-1.485,1.44m.751.64a1.2,1.2,0,0,1-.012.16c-.032.251-.011.315-.079.4s-.135.164-.351.042c-.2-.1.169-.351.441-.6m-1.485,2.723a2.539,2.539,0,0,1-1.264.1.76.76,0,0,0-.115,0c.084-.1.18-.157.27-.257a6.6,6.6,0,0,1,1.565-1.441c.353-.171.607-.088,1,.224.313.245-.181.5-.462.726a3.289,3.289,0,0,1-1,.647m2.568-.065c.082.33-.054.36-.366.5a1.4,1.4,0,0,1-.681.178,1.555,1.555,0,0,0-.872.269.724.724,0,0,0-.247.269c0-.3-.052-.551-.037-.636a2.155,2.155,0,0,1,.251-.613c.117-.2.923-.725,1.1-.939s.762.644.847.976m-.35-1.671c-.4,0-.378.1-.575-.054s-.1-.235-.054-.332c.122-.247.344-.215.654-.344s.336-.408.367-.638a3.478,3.478,0,0,0,.012-.566s-.174.036-.373.1c.048-.054.1-.115.169-.185.343-.379.646.642.609.881-.052.378.415.562.714.677a2.223,2.223,0,0,1,.374.21,6.584,6.584,0,0,1-.643.146,11.548,11.548,0,0,1-1.253.107M27.628,38.4a5.87,5.87,0,0,1,1.17,1.424,2.468,2.468,0,0,1,.2.41c-.136,0-.383-.009-.739-.038a1.649,1.649,0,0,0-.022-.307c-.052-.2-.566-.624-.764-1.078s.015-.54.152-.411m-.022,2.889c.2.305.431.585.431.585a7.3,7.3,0,0,1,.133-.81c0-.012,0-.024.006-.035.166-.1.3-.2.374-.245a3.809,3.809,0,0,0,.484-.449,3.08,3.08,0,0,1-.022,2.034c-.168.353-.525,1.039-.708,1.107a3.087,3.087,0,0,1-.675.194,3.934,3.934,0,0,0-1.146.021c-.019.005-.043.021-.063.028.005-.062.01-.128.017-.2.052-.561-.249-.86-.629-1.224a1.07,1.07,0,0,1-.3-.937c0-.183.332-.219.583-.282a.412.412,0,0,1,.137,0c.164.116.29.216.29.216l-.046-.166a4.519,4.519,0,0,0,.707.2,1.006,1.006,0,0,0,.426-.041m-.475-3.234c.3.216.132.826.014,1.323a1.8,1.8,0,0,0,.014.788,1.133,1.133,0,0,0-.708.651.212.212,0,0,1-.059.032c-.043-.149-.1-.325-.153-.514a1.435,1.435,0,0,0-.845-.891,2.868,2.868,0,0,1-.567-.312c-.348-.235.2-.582.359-.727s.582-.442.913-.714c.086-.067.262.042.477.091a1.172,1.172,0,0,1,.557.274m1.287-1.867c-.563,0-.957.825-1.09,1.007-.795.463-.683.337-.87.282-.247-.081.126-.471.274-.638.263-.3.738-.968.916-1.134s.682-.114,1.229-.008.537.092.745.518c-.39-.01-.883-.026-1.2-.026m4.328-2.662a1.566,1.566,0,0,0,.421.11,1.92,1.92,0,0,1-.472.7c-.38.278-1.271,1.136-1.454,1.284s-1.039-.115-1.386-.131-.166-.3-.066-.415a2.551,2.551,0,0,1,.844-.347,2.005,2.005,0,0,0,.941-.842c.2-.284.338-.527.459-.743a4.8,4.8,0,0,0,.714.379m-1.57-1.75a1.611,1.611,0,0,0,.707,1.265,8.373,8.373,0,0,0-1.713.9,1.713,1.713,0,0,0-.433.906.873.873,0,0,1-.512.482,1.856,1.856,0,0,1-.737-.1,1.026,1.026,0,0,0-.477-.033c-.126.013-.131-.122-.011-.427a21.214,21.214,0,0,0,.583-2.177c.049-.348.036-.361.2-.542a11.716,11.716,0,0,1,.913-.954c.266-.219.4-.21.5-.142s.9.73.984.826m-3.42-4.034A8.252,8.252,0,0,1,29.011,26.6a.991.991,0,0,1,.709-.15,10.388,10.388,0,0,1,1.406.38c.581.2,1.127-.38,1.323-.445a1.4,1.4,0,0,0,.146-.061,8.493,8.493,0,0,0-.472.753c-.268.493.193,1.077.244,1.29a.859.859,0,0,1-.244.723,10.046,10.046,0,0,0-3.246,2.336c-.2.125-.18-.068-.337-.725-.077-.289-.472-1.61-.484-1.773s.183-.248.395-.38a.653.653,0,0,1,.461-.07,3.068,3.068,0,0,0,1.31-.194c.247-.1.427-.547.574-.764s.4-.494.4-.494-.577-.015-1.089.017a1.683,1.683,0,0,0-1.041.463,2.267,2.267,0,0,0-.463.76s-.2.116-.432.231-.29.072-.428-.166a.692.692,0,0,1,.015-.595m-1.306,2.745a4.292,4.292,0,0,0,.481-.943.694.694,0,0,0-.013-.286c.181-.116.333-.222.393-.261.15-.1.316-.082.69,1.176a5.358,5.358,0,0,1-.229,3.057c-.114.314-.509-.43-.706-.812-.045-.083-.106-.18-.174-.281a.612.612,0,0,1,.259-.41,6.167,6.167,0,0,0,.5-.5c.242-.242.213-1.306.122-1.221a8.217,8.217,0,0,0-.837.814,2.037,2.037,0,0,0-.023.968c.015.044-.052.134-.118.208a7.462,7.462,0,0,1-.529-.787,1.035,1.035,0,0,1,.182-.725m-5.415,2.187a7.4,7.4,0,0,0,.032-1.444,1.53,1.53,0,0,0,1.349-.513c.332-.361.481-.5.481-.5a3.574,3.574,0,0,1,.5-.1,2.763,2.763,0,0,1,1.52.542A6.6,6.6,0,0,1,26.56,32.23a.165.165,0,0,0-.114.017,4.142,4.142,0,0,1-1.314.415,1.254,1.254,0,0,1-1.091-.17c-.077-.064-.062-.366-.014-.581a1.773,1.773,0,0,0-.14-.713c-.066-.263-.67-.629-.907-.77a10.217,10.217,0,0,0,.26,1.509,1.977,1.977,0,0,0,.743.658c.476.456,1.46.194,1.728.123s.075.134.013.207a2.181,2.181,0,0,1-.612.194,1.231,1.231,0,0,0-.343.243s-.544.965-.193.982.75-.348.992-.66a1.8,1.8,0,0,0,.29-.7.938.938,0,0,1,.415-.4c.1-.04.281-.129.412-.193.206.267.393.528.544.755.528.795.295.959-.2,1.946a13.945,13.945,0,0,1-2.413,2.734c-.2.18-.332-.282-.348-.566a.729.729,0,0,1,.178-.593c.137-.133.663-.645.843-.839a1.123,1.123,0,0,0,.129-.815,3.57,3.57,0,0,1,0-.858c-.875.444-1.283.909-1.3,1.535s.1.911.085,1.207-.332-.348-.417-.608A5.729,5.729,0,0,0,22.931,35a4.645,4.645,0,0,1-.678-1.056,1.72,1.72,0,0,0-1.271-.677l-.024,0c.033-.211.061-.42.079-.585m-.291,1.509a2.067,2.067,0,0,0,1.426.763c.481.05,1.339,1.308,1.453,1.522s.185.33-.064.278a.953.953,0,0,1-.528-.3,2.074,2.074,0,0,0-1.537-.642,2.787,2.787,0,0,1-.565.061c-.075-.132-.135-.236-.164-.3-.065-.136-.2-.375-.318-.569.117-.377.231-.654.3-.822M20.3,30.3a1.812,1.812,0,0,1,.067.289c-.173.167-.316.323-.4.4.061-.043.22,0,.431.068a7.576,7.576,0,0,1-.435,2.079c-.095.3-.218.624-.347.937-.41-.394-.824-.762-.985-.968-.253-.311-.187-.473-.052-.627s.35-.245.631-.527a1.381,1.381,0,0,0,.429-.928c.033-.366,0-.856,0-1a2.682,2.682,0,0,0-1.271,1c-.234.4-.035,1.255-.05,1.554s-.465-.051-.745-.2a4.28,4.28,0,0,1-.991-.626,1.062,1.062,0,0,1-.116-.829c.033-.229.247-.444.4-.941a.907.907,0,0,0,.025-.327,4.193,4.193,0,0,0,.914.26c.331.066,1.058-.364,1.193-.429a2.536,2.536,0,0,1,.839-.065c.247.014.447.761.461.875M13.933,29a6.749,6.749,0,0,0,.139-1.061,2.387,2.387,0,0,1,.1-.746c.052-.091.482.036.808.147,0,.019-.011.035-.011.054a.855.855,0,1,0,.048-.236c-.323-.08-.732-.185-.841-.231-.16-.068-.265-.546-.149-.943s.413-.5.626-.641a.665.665,0,0,0,.187-.228,7.649,7.649,0,0,0,2.03.874.99.99,0,0,1,.233.11,3.159,3.159,0,0,1,.245.663,1.553,1.553,0,0,0,.744,1.044,2.145,2.145,0,0,0,.975.33c.347.44.61.8.677.888.2.267-.067.314-.38.267a1.5,1.5,0,0,1-.762-.364,2.258,2.258,0,0,0-1.037-.264,2.5,2.5,0,0,0-.884.288,1.41,1.41,0,0,0-.243-.356,1.448,1.448,0,0,1-.3-.426,8.454,8.454,0,0,0-.513,1.151c-.182.369.264,1.275.431,1.456s.147.2.18.467-.535-.122-.633-.185a5.3,5.3,0,0,1-1.477-1.081c-.39-.474-.3-.555-.2-.98m-1.38,5.927a4,4,0,0,0,.2-.991,1.787,1.787,0,0,0-.5-1.155,3.969,3.969,0,0,1-.311-.513,8.633,8.633,0,0,0-.348,1.52,2.076,2.076,0,0,0,.676,1.418c.249.266.224.5.058.909-.1.236-.654-.468-.654-.468a11.835,11.835,0,0,1-1.545-1.919c0-.005.007-.012.006-.017a4.056,4.056,0,0,1,.336-1.254c.258-.636.6-.75.688-.78s.322.133.467.28a1.733,1.733,0,0,0,.635.251,1.147,1.147,0,0,0,.621-.125q.032.109.063.2a.75.75,0,1,0,.363-.1.74.74,0,0,0-.192.039c-.028-.065-.054-.133-.077-.2.119-.053.228-.1.3-.141a2.227,2.227,0,0,1-.374-.16,7.474,7.474,0,0,1,.085-1.844c.049-.365.264-.247.3-.181a9.851,9.851,0,0,0,1.632,1.45c.578.346,1.585,1.094,1.885,1.24s0,.116-.117.033-.415-.314-.693-.528a1.262,1.262,0,0,0-1.091-.047,2.741,2.741,0,0,1-.878.1,2.662,2.662,0,0,0,.459.571c-.193.3-.4.694-.557.915-.234.314-1.042,1.817-1.306,2.131s-.181-.445-.132-.626m.479,3.948c.01-.171.022-.327.022-.473.337.416.61.75.7.857.169.187-.158.344-.525.47.02-.015.017-.03-.033-.044-.183-.05-.183-.478-.168-.81m.627,1.488a9.053,9.053,0,0,0-.928.582.543.543,0,0,0-.112.1c0-.135.005-.264,0-.373-.035-.545.613-.759,1.14-.857a.99.99,0,0,1,.433.017.951.951,0,0,1-.532.527m.707-2.106,0-.006v.009l0,0m.043.038-.011-.01.013-.019a.124.124,0,0,0,0,.029m2.935,2.035a27.1,27.1,0,0,1-2.528-1.673l-.08-.071c.19.045.418.066.521.081.183.025.766-.346.9-.422s.3-.237.185-.21-.291-.077-.6-.263a.905.905,0,0,0-.651-.142,2.431,2.431,0,0,0,.472-.489c.291-.385.018-1.92-.1-1.8a11.911,11.911,0,0,0-1.151,1.171,2.9,2.9,0,0,0,0,1.369c.018.049-.036.141-.1.231a16.338,16.338,0,0,1-1.463-1.4c-.318-.411.1-.844.292-1.161l2-.607a3.345,3.345,0,0,0,.627.114c.362.029.642-.332.792-.528s.463-.314.546-.481a5.244,5.244,0,0,0-1.7-.1c-.364.1-.364.677-.38.76s-.455.218-.455.218a3.888,3.888,0,0,1-.835.2c-.4.031-.33-.116-.1-.478.171-.274.856-1.443,1.181-2a1.6,1.6,0,0,0,1.774.151c.251-.185.825-.05,1.078-.015s.7.407,1.618,1.269a3.505,3.505,0,0,1,.306.34c-.118.271-.236.531-.341.749-.268.546-.445,1.359-.64,1.837s-.409.191-.39-.077a3.289,3.289,0,0,0-.143-1.06,1.351,1.351,0,0,0-.548-.6,6.6,6.6,0,0,1-.775-.494,8.4,8.4,0,0,1,0,1.107,1.617,1.617,0,0,0,.81,1.171c.395.2.533.085.729.384.15.224.083.146.017.656a13.886,13.886,0,0,1-.261,1.741c-.129.578-.206.71-.6.525" transform="translate(-0.674 -7.872)" fill="#fff"></path><path id="Path_1853" data-name="Path 1853" d="M0,51.11V3.428l.153-.059A64.009,64.009,0,0,1,19.018,0V.479A63.976,63.976,0,0,0,.48,3.756V50.63h36.7V3.548c-.557-.189-2.55-.848-5.4-1.508A57.8,57.8,0,0,0,19.018.479V0A61.424,61.424,0,0,1,37.5,3.151l.16.056v47.9Z" transform="translate(0 0)" fill="#fff"></path><path id="Path_1854" data-name="Path 1854" d="M350.281,48.01V47.6H353.2v.409h-1.217v3.241H351.5V48.01Z" transform="translate(-126.434 -17.182)" fill="#fff"></path><path id="Path_1855" data-name="Path 1855" d="M356.274,47.6l1.151,3.067L358.58,47.6h.665v3.65h-.459V48.215h-.011l-1.14,3.037h-.414l-1.14-3.037h-.01v3.037h-.461V47.6Z" transform="translate(-128.358 -17.182)" fill="#fff"></path><rect id="Rectangle_356" data-name="Rectangle 356" width="222.87" height="0.85" transform="translate(0 57.707)" fill="#fff"></rect></g></svg> 