<?xml version="1.0" encoding="UTF-8"?> <svg xmlns="http://www.w3.org/2000/svg" xmlns:xlink="http://www.w3.org/1999/xlink" id="Group_1211" data-name="Group 1211" width="76.418" height="75.386" viewBox="0 0 76.418 75.386"><defs><clipPath id="clip-path"><rect id="Rectangle_375" data-name="Rectangle 375" width="76.418" height="75.386"></rect></clipPath></defs><g id="Group_1210" data-name="Group 1210" clip-path="url(#clip-path)"><path id="Path_2156" data-name="Path 2156" d="M76.417,117.284c-1.755,1.565-3.44,3.219-5.285,4.67a12.681,12.681,0,0,0-4,5.231c-.943,2.267-2.1,4.444-3.135,6.675a1.147,1.147,0,0,0-.016.865,5.3,5.3,0,0,1-4.5,7.793,1.434,1.434,0,0,0-.2.053c-.33,3.211-2.094,5.053-5.361,5.382a5.5,5.5,0,0,1-5.358,5.368,5.457,5.457,0,0,1-9.45,3.59c-1.5,1.756-3.347,2.746-5.717,2.171a5.271,5.271,0,0,1-4.095-4.594,11.875,11.875,0,0,1-1.4-.008,5.2,5.2,0,0,1-4.644-4.692c-.041-.357-.04-.635-.546-.7a5.186,5.186,0,0,1-4.819-5.657c0-.1,0-.2,0-.34-.163-.047-.32-.1-.482-.138a5.267,5.267,0,0,1-3.215-8.287.745.745,0,0,0,0-1.08c-2.007-2.659-3.962-5.357-5.979-8.009a10.993,10.993,0,0,0-1.607-1.542c-1.915-1.663-3.846-3.308-5.767-4.964-1.049-.9-1.109-1.584-.229-2.674q6.815-8.448,13.637-16.89c.83-1.027,1.423-1.119,2.564-.4,2.33,1.476,4.644,2.98,6.993,4.424a9.291,9.291,0,0,0,2.216,1c2.31.68,4.639,1.3,6.969,1.9a2.342,2.342,0,0,0,1.152-.013c2.036-.553,4.074-1.108,6.085-1.743a12.076,12.076,0,0,1,3.88-.547c2.785.043,5.571.025,8.357,0a2.225,2.225,0,0,0,1.1-.32c2.466-1.54,4.911-3.113,7.365-4.674,1.205-.766,1.789-.668,2.66.463q6.124,7.947,12.241,15.9c.192.25.388.5.582.746ZM25.544,135.071c3.652-.45,6.244,1.736,6.48,5.265a5.408,5.408,0,0,1,5.214,6.476c.037.032.07.086.111.093a5.308,5.308,0,0,1,3.906,7.335c-.061.145-.035.458.058.514a5.45,5.45,0,0,0,1.681.848,2.037,2.037,0,0,0,2.209-1.187,2.24,2.24,0,0,0-.364-2.63c-1-1.069-2.054-2.095-3.085-3.139-.157-.159-.322-.311-.471-.478a1.5,1.5,0,0,1-.043-2.146,1.486,1.486,0,0,1,2.141.022c1.157,1.128,2.283,2.288,3.417,3.44a2.3,2.3,0,1,0,3.317-3.182c-1.808-1.883-3.667-3.717-5.5-5.575a13.925,13.925,0,0,1-1.074-1.137,1.466,1.466,0,0,1,.1-1.912,1.5,1.5,0,0,1,1.97-.161,4.781,4.781,0,0,1,.545.508q2.966,2.995,5.926,6a2.36,2.36,0,0,0,2.414.8,2.3,2.3,0,0,0,.926-3.964q-4.42-4.494-8.866-8.962a10.345,10.345,0,0,1-.868-.923,1.442,1.442,0,0,1,.153-1.963,1.49,1.49,0,0,1,1.915-.114,6.6,6.6,0,0,1,.7.664q4.513,4.56,9.026,9.119a2.314,2.314,0,1,0,3.228-3.278q-8.594-8.6-17.208-17.183a1.9,1.9,0,0,0-1.1-.462c-1.757-.162-3.522-.238-5.279-.4a.91.91,0,0,0-1.057.533q-1.66,3.041-3.411,6.032a5.288,5.288,0,1,1-9.168-5.272c1.72-3.107,3.5-6.183,5.248-9.273.145-.255.28-.516.46-.851-1.405-.381-2.735-.765-4.08-1.082-.2-.046-.537.169-.694.36q-6.455,7.824-12.882,15.671c-.2.242-.387.494-.585.748l5.762,7.758a5.377,5.377,0,0,1,8.821,3.091m36.01-3.1c1.277-2.677,2.489-5.263,3.75-7.824a1.051,1.051,0,0,0-.138-1.315q-6-7.571-11.947-15.183a1.25,1.25,0,0,0-1.123-.528c-2.985.019-5.969,0-8.954.018a4.67,4.67,0,0,0-1.244.173q-4.87,1.388-9.728,2.819a1.148,1.148,0,0,0-.641.431c-1.853,3.233-3.7,6.471-5.507,9.729a2.222,2.222,0,0,0,.56,2.774,2.3,2.3,0,0,0,3.55-.749q2-3.49,3.963-7.007a1.789,1.789,0,0,1,1.881-1.029q3.718.29,7.441.511a2.666,2.666,0,0,1,1.816.875q7.815,7.855,15.662,15.677c.19.19.39.371.659.627M15.98,102.128,3.587,117.482l5.281,4.534,13.163-16.037-6.051-3.85M67.59,121.09l5.276-4.544-11.085-14.4L55.727,106,67.59,121.09M23.435,146.132a2.947,2.947,0,0,0,1.057-.463c1.373-1.295,2.736-2.608,4-4.007a2.261,2.261,0,0,0-3.291-3.076c-1.3,1.228-2.571,2.492-3.794,3.8a2.094,2.094,0,0,0-.311,2.44,2.327,2.327,0,0,0,2.338,1.309m2.638,3.057a2.661,2.661,0,0,0,1.508,2.139,2.114,2.114,0,0,0,2.429-.379c1.261-1.2,2.5-2.422,3.691-3.691a2.279,2.279,0,0,0-3.3-3.141c-1.179,1.142-2.359,2.285-3.468,3.493a7.236,7.236,0,0,0-.856,1.579m12.611,2.6a2.267,2.267,0,0,0-3.6-1.5,20.468,20.468,0,0,0-2.312,2.305,2.084,2.084,0,0,0-.189,2.444,2.161,2.161,0,0,0,2.146,1.193c1.392-.065,3.93-2.707,3.95-4.447M20.276,133.553a4.712,4.712,0,0,0-1.331.562,21.413,21.413,0,0,0-2.318,2.3,2.224,2.224,0,0,0,.212,2.981,2.247,2.247,0,0,0,2.986.192,19.721,19.721,0,0,0,2.206-2.2,2.17,2.17,0,0,0,.268-2.508,2.444,2.444,0,0,0-2.025-1.323" transform="translate(0 -83.86)"></path><path id="Path_2157" data-name="Path 2157" d="M301.246,41.736c-.49-.393-1.05-.64-1.249-1.06a2.537,2.537,0,0,1,.057-1.46c.049-.231.332-.42.525-.612q4.741-4.747,9.488-9.49a5.326,5.326,0,0,1,.547-.5,1.482,1.482,0,0,1,2.1,2.047,3.916,3.916,0,0,1-.449.5q-4.822,4.825-9.655,9.639a10.05,10.05,0,0,1-1.366.945" transform="translate(-254.978 -24.058)"></path><path id="Path_2158" data-name="Path 2158" d="M136.039,39.7a1.539,1.539,0,0,1-2.154,1.629,2.728,2.728,0,0,1-.637-.506q-4.881-4.871-9.756-9.749a1.622,1.622,0,0,1-.608-1.717,1.476,1.476,0,0,1,2.279-.8,4.231,4.231,0,0,1,.551.5q4.773,4.768,9.535,9.548a7.127,7.127,0,0,1,.789,1.1" transform="translate(-104.417 -24.047)"></path><path id="Path_2159" data-name="Path 2159" d="M248.084,45.72c0,1.341.006,2.683,0,4.024a1.508,1.508,0,1,1-2.986,0q-.01-4.024,0-8.049a1.5,1.5,0,1,1,2.985,0c.01,1.341,0,2.683,0,4.024" transform="translate(-208.375 -34.011)"></path><path id="Path_2160" data-name="Path 2160" d="M246.629,2.978a1.5,1.5,0,0,1-1.488-1.454,1.49,1.49,0,1,1,2.98,0,1.5,1.5,0,0,1-1.492,1.451" transform="translate(-208.417 0.001)"></path></g></svg> 