<?xml version="1.0" encoding="UTF-8"?> <svg xmlns="http://www.w3.org/2000/svg" xmlns:xlink="http://www.w3.org/1999/xlink" id="Group_1291" data-name="Group 1291" width="65.71" height="63.698" viewBox="0 0 65.71 63.698"><defs><clipPath id="clip-path"><rect id="Rectangle_403" data-name="Rectangle 403" width="65.71" height="63.698" fill="none"></rect></clipPath></defs><rect id="Rectangle_401" data-name="Rectangle 401" width="21.133" height="2.64" transform="translate(22.306 4.874)" fill="#fff"></rect><g id="Group_1290" data-name="Group 1290"><g id="Group_1289" data-name="Group 1289" clip-path="url(#clip-path)"><path id="Path_2186" data-name="Path 2186" d="M0,20.749c.163-.967.3-1.939.492-2.9,1.123-5.488,6.066-8.274,11.57-6.532.5,3.065.5,3.065-2.624,3.072-3.621.008-4.983,1.172-5.487,4.764-.246,1.756-.421,3.522-.649,5.465H61.866a55.383,55.383,0,0,0,.216-5.592,3.949,3.949,0,0,0-3.006-3.545,19.745,19.745,0,0,0-4.18-1.038c-1.258-.127-1.442-.667-1.5-1.761-.063-1.23.505-1.611,1.545-1.773,6.084-.943,10.539,2.728,10.632,9.4q.283,20.259,0,40.525c-.071,5.707-2.391,8.044-7.878,9.071a3.821,3.821,0,0,0-.726.3H8.7a10.236,10.236,0,0,0-1.3-.377C3.264,69.183.851,66.694.39,62.6c-.072-.639-.257-1.264-.39-1.9V20.749m61.87,8.029h-58a2.317,2.317,0,0,0-.241.641c-.005,10.54-.106,21.082.061,31.62C3.748,65,5.606,66.6,9.6,66.613q23.222.08,46.444,0c4.331-.016,6.063-1.871,6.077-6.242q.046-14.428,0-28.855c0-.9-.157-1.8-.244-2.735" transform="translate(0 -6.506)"></path><path id="Path_2187" data-name="Path 2187" d="M41.108,0a3.332,3.332,0,0,1,1.6,3.314c-.113,1.963-.044,3.939,0,5.908.029,1.39-.624,2.454-1.921,2.46-.495,0-1.359-1.37-1.425-2.168a40.352,40.352,0,0,1,.009-6.873c.08-.913.876-1.763,1.346-2.642Z" transform="translate(-23.7)"></path><path id="Path_2188" data-name="Path 2188" d="M119.826,0a4.033,4.033,0,0,1,1.617,3.755c-.114,1.634.121,3.3-.07,4.918a16.372,16.372,0,0,1-1.17,3.357C117.169,9.84,116.989,2.469,119.43,0Z" transform="translate(-71.162)"></path><rect id="Rectangle_402" data-name="Rectangle 402" width="21.133" height="2.64" transform="translate(22.306 4.874)"></rect><path id="Path_2189" data-name="Path 2189" d="M51.656,84.944l2.69-2.239,7.587,9.36L75.424,73.076l2.851,1.952C74.642,80.2,71.106,85.245,67.557,90.281c-1.25,1.774-2.492,3.557-3.811,5.279-1.234,1.611-2.035,1.7-3.305.186-2.953-3.516-5.8-7.12-8.785-10.8" transform="translate(-31.219 -44.164)"></path></g></g></svg> 