<?xml version="1.0" encoding="UTF-8"?> <svg xmlns="http://www.w3.org/2000/svg" xmlns:xlink="http://www.w3.org/1999/xlink" id="Group_1286" data-name="Group 1286" width="87.358" height="88.802" viewBox="0 0 87.358 88.802"><defs><clipPath id="clip-path"><rect id="Rectangle_399" data-name="Rectangle 399" width="87.358" height="88.802" fill="none"></rect></clipPath></defs><g id="Group_1285" data-name="Group 1285" clip-path="url(#clip-path)"><path id="Path_2176" data-name="Path 2176" d="M34.7,138.561a5.553,5.553,0,0,0-3.125.943,1.54,1.54,0,0,1-2.449-.452q-2.976-4.107-5.941-8.222A3.114,3.114,0,0,1,23.945,126Q36.722,116.769,49.5,107.54,64.756,96.523,80.024,85.527a5.171,5.171,0,0,1,2.187-.889,2.679,2.679,0,0,1,2.584,1.252c1.812,2.5,3.627,5,5.419,7.511a3.031,3.031,0,0,1-.281,4.089,5.449,5.449,0,0,0-1.151,5.748,5.239,5.239,0,0,0,4.626,3.67,7.329,7.329,0,0,0,2.994-.451,3.2,3.2,0,0,1,4.075,1.147q2.568,3.54,5.118,7.093c1.356,1.89,1.069,3.543-.834,4.917l-35.1,25.347q-10.487,7.575-20.973,15.15c-1.9,1.369-3.561,1.1-4.925-.791q-2.517-3.486-5.035-6.972a3.133,3.133,0,0,1,.21-4.386,5.378,5.378,0,0,0,.893-6.1,5.471,5.471,0,0,0-5.132-3.3m63.212-29.372c-5.083,1.4-8.478.512-10.844-2.8-2.394-3.346-2.168-6.822.76-11.168L82.295,87.56c-3.669,2.651-7.266,5.244-10.849,7.856a.954.954,0,0,0-.267.611c-.1.822-1.072,1.73-1.836,1.517a1.508,1.508,0,0,0-1.437.407q-19.245,13.905-38.5,27.8c-1.343.97-2.682,1.945-4.058,2.942l5.54,7.666c4.109-1.536,7.8-1.012,10.529,2.462,3.011,3.828,2.5,7.766-.445,11.506l5.523,7.636c.273-.189.474-.324.67-.466L63.917,145.41q12.664-9.145,25.331-18.287a1.208,1.208,0,0,0,.632-1.045c.022-.78,1.2-1.5,1.973-1.383a1.448,1.448,0,0,0,.967-.182c3.392-2.417,6.764-4.863,10.139-7.3.153-.11.288-.245.467-.4l-5.508-7.621" transform="translate(-19.079 -72.167)"></path><path id="Path_2177" data-name="Path 2177" d="M100.079,3c-.543.931-1.07,1.836-1.6,2.741Q96,9.985,93.511,14.232a1.042,1.042,0,0,0-.152,1.071A1.725,1.725,0,0,1,92.2,17.386a1.194,1.194,0,0,0-.972.733Q83.271,31.76,75.284,45.385A2.544,2.544,0,0,1,74.2,46.393a1.3,1.3,0,0,1-1.574-.473,1.437,1.437,0,0,1-.1-1.717q.954-1.655,1.921-3.3Q85.861,21.367,97.278,1.834a3.1,3.1,0,0,1,4.67-1.248q3.841,2.234,7.672,4.485a3.017,3.017,0,0,1,1.49,3.813,5.735,5.735,0,0,0,.405,4.687,1.5,1.5,0,0,1-.1,1.783,1.272,1.272,0,0,1-1.511.468,2.373,2.373,0,0,1-1.1-.978,8.209,8.209,0,0,1-.666-6.4c.162-.55.016-.768-.435-1.027-2.337-1.339-4.655-2.711-6.981-4.069-.188-.11-.382-.208-.645-.35" transform="translate(-61.657 0)"></path><path id="Path_2178" data-name="Path 2178" d="M3,414.428c1.491.874,2.921,1.716,4.355,2.549a1.532,1.532,0,0,1,.884,1.337,1.438,1.438,0,0,1-2.061,1.406c-1.7-.914-3.381-1.879-4.991-2.941a2.882,2.882,0,0,1-.905-3.617,7.5,7.5,0,0,1,.681-1.214,1.472,1.472,0,0,1,2.011-.445,1.5,1.5,0,0,1,.539,1.99c-.138.284-.3.555-.513.933" transform="translate(0 -350.795)"></path><path id="Path_2179" data-name="Path 2179" d="M232.7,121.166a1.325,1.325,0,0,1-.377-.1c-1.04-.592-2.1-1.162-3.1-1.81-.583-.377-.574-1.033-.1-1.83.448-.752.979-1.022,1.625-.685,1.018.53,2,1.123,2.979,1.731a1.025,1.025,0,0,1,.415,1.353c-.272.617-.547,1.291-1.441,1.338" transform="translate(-195.131 -99.452)"></path><path id="Path_2180" data-name="Path 2180" d="M281.033,146.993a1.928,1.928,0,0,1-1.5,1.755,1.175,1.175,0,0,1-1.161-1.179,1.921,1.921,0,0,1,1.46-1.7,1.139,1.139,0,0,1,1.2,1.127" transform="translate(-237.434 -124.413)"></path><path id="Path_2181" data-name="Path 2181" d="M359.351,185.48a1.779,1.779,0,0,1-1.3,1.644,1.108,1.108,0,0,1-1.351-.442c-.568-.763-1.137-1.526-1.668-2.314-.431-.639-.262-1.227.44-1.756.818-.617,1.434-.659,1.929-.04.624.78,1.189,1.607,1.762,2.426a1.8,1.8,0,0,1,.193.48" transform="translate(-302.613 -155.343)"></path><path id="Path_2182" data-name="Path 2182" d="M422.492,272.96a1.764,1.764,0,0,1-1.246,1.659,1.193,1.193,0,0,1-1.473-.5c-.507-.72-1.044-1.421-1.539-2.15-.523-.768-.356-1.326.539-1.957a1.216,1.216,0,0,1,1.908.237q.771,1.028,1.5,2.087a3.817,3.817,0,0,1,.31.626" transform="translate(-356.472 -229.999)"></path><path id="Path_2183" data-name="Path 2183" d="M451.15,312.023a5.005,5.005,0,0,1,1,.71c.582.725,1.122,1.487,1.645,2.256.486.715.325,1.282-.476,1.861-.833.6-1.425.572-1.971-.143-.506-.662-.967-1.357-1.471-2.02-.356-.469-.577-1.017-.2-1.48a8.714,8.714,0,0,1,1.478-1.183" transform="translate(-383.371 -266.133)"></path><path id="Path_2184" data-name="Path 2184" d="M387.944,224.451a6.186,6.186,0,0,1,1.033.8c.552.686,1.056,1.412,1.555,2.138.512.744.36,1.343-.451,1.924s-1.427.55-1.974-.17c-.5-.663-.968-1.355-1.467-2.021-.331-.442-.586-.966-.221-1.412a9.9,9.9,0,0,1,1.525-1.257" transform="translate(-329.435 -191.441)"></path></g></svg> 