<?xml version="1.0" encoding="UTF-8"?> <svg xmlns="http://www.w3.org/2000/svg" width="57.026" height="57.026" viewBox="0 0 57.026 57.026"><g id="Group_1206" data-name="Group 1206" transform="translate(-506.033 -7385.857)"><g id="Group_1046" data-name="Group 1046" transform="translate(528.738 7408.647)"><path id="Path_1007" data-name="Path 1007" d="M2.619,0a5.809,5.809,0,1,0,5.81,5.808A5.808,5.808,0,0,0,2.619,0" transform="translate(3.189)" fill="#fff"></path></g><g id="Group_1205" data-name="Group 1205" transform="translate(506.033 7385.857)"><g id="Group_1047" data-name="Group 1047" transform="translate(14.428 14.511)"><path id="Path_1008" data-name="Path 1008" d="M10.527,3.1a2.087,2.087,0,1,1,2.089-2.089A2.086,2.086,0,0,1,10.527,3.1M1.267,19.275a8.96,8.96,0,1,1,8.963-8.959,8.961,8.961,0,0,1-8.963,8.959M8.739-3.774H-6.2a6.617,6.617,0,0,0-6.617,6.619V17.783A6.617,6.617,0,0,0-6.2,24.4H8.739a6.619,6.619,0,0,0,6.619-6.619V2.845A6.619,6.619,0,0,0,8.739-3.774" transform="translate(12.817 3.774)" fill="#fff"></path></g><g id="Group_1048" data-name="Group 1048"><path id="Path_1009" data-name="Path 1009" d="M20.644,16.15a9.97,9.97,0,0,1-9.966,9.97H-3.92a9.971,9.971,0,0,1-9.97-9.97V1.552a9.968,9.968,0,0,1,9.97-9.97h14.6a9.967,9.967,0,0,1,9.966,9.97ZM3.376-19.663A28.513,28.513,0,1,0,31.891,8.848,28.512,28.512,0,0,0,3.376-19.663" transform="translate(25.135 19.663)" fill="#fff"></path></g></g></g></svg> 