<?xml version="1.0" encoding="UTF-8"?> <svg xmlns="http://www.w3.org/2000/svg" xmlns:xlink="http://www.w3.org/1999/xlink" id="Group_1253" data-name="Group 1253" width="37" height="37" viewBox="0 0 37 37"><defs><clipPath id="clip-path"><rect id="Rectangle_392" data-name="Rectangle 392" width="37" height="37" fill="none"></rect></clipPath></defs><g id="Group_1252" data-name="Group 1252" clip-path="url(#clip-path)"><path id="Path_2170" data-name="Path 2170" d="M17.229,0h2.145a1.938,1.938,0,0,0,.276.059,17.231,17.231,0,0,1,7.245,2.09,18.04,18.04,0,0,1,9.42,12.967c.133.7.194,1.408.288,2.113v2.145a2.473,2.473,0,0,0-.061.308,17.241,17.241,0,0,1-2.086,7.21A18.041,18.041,0,0,1,21.49,36.314c-.7.134-1.411.194-2.116.289H17.229a1.93,1.93,0,0,0-.276-.059,17.231,17.231,0,0,1-7.245-2.09A18.04,18.04,0,0,1,.288,21.486c-.133-.7-.194-1.408-.288-2.113V17.229a2.451,2.451,0,0,0,.061-.308,17.241,17.241,0,0,1,2.086-7.21A18.042,18.042,0,0,1,15.113.289c.7-.134,1.41-.194,2.116-.289M33.743,18.3A15.441,15.441,0,1,0,18.285,33.743,15.447,15.447,0,0,0,33.743,18.3"></path><path id="Path_2171" data-name="Path 2171" d="M143.062,178.073a2.007,2.007,0,0,1,.237-.389q4.049-4.061,8.1-8.114a1.593,1.593,0,0,1,1.149-.568,1.369,1.369,0,0,1,1.279.764,1.341,1.341,0,0,1-.1,1.482,3.059,3.059,0,0,1-.356.4q-4.584,4.587-9.17,9.171a1.491,1.491,0,0,1-2.433.009q-2.135-2.134-4.27-4.268a1.457,1.457,0,0,1-.483-1.385,1.411,1.411,0,0,1,2.314-.8c.486.418.922.9,1.378,1.349.75.746,1.5,1.5,2.353,2.35" transform="translate(-127.193 -156.921)" fill="#d83e19"></path></g></svg> 