<?xml version="1.0" encoding="UTF-8"?> <svg xmlns="http://www.w3.org/2000/svg" xmlns:xlink="http://www.w3.org/1999/xlink" id="Group_1288" data-name="Group 1288" width="69.058" height="76.411" viewBox="0 0 69.058 76.411"><defs><clipPath id="clip-path"><rect id="Rectangle_400" data-name="Rectangle 400" width="69.058" height="76.411" fill="none"></rect></clipPath></defs><g id="Group_1287" data-name="Group 1287" clip-path="url(#clip-path)"><path id="Path_2185" data-name="Path 2185" d="M24.791,22.578c-.582-.311-1.167-.616-1.744-.936a29.6,29.6,0,0,1-7.53-5.617,12.936,12.936,0,0,1-3.131-5.43c-1.081-3.958,1.291-7.715,3.49-9.324A6.309,6.309,0,0,1,20.3.029a9.683,9.683,0,0,1,5.32,2.2,22.191,22.191,0,0,1,4.932,5.812,50.973,50.973,0,0,1,3.931,7.626c.031.08.075.155.157.321.089-.237.152-.4.213-.571a22.117,22.117,0,0,1,4.008-7.141c.341-.387.719-.742,1.09-1.1A8.364,8.364,0,0,1,47.3,4.916a7.525,7.525,0,0,1,6.641,7.5,7.083,7.083,0,0,1-1.747,4.4,9.593,9.593,0,0,1-2.7,2.4c-1.8,1.038-3.582,2.122-5.37,3.187a.69.69,0,0,0-.278.273h.5q11.386,0,22.772,0a1.967,1.967,0,0,1,1.3.329,1.789,1.789,0,0,1,.638,1.532q-.007,5.892,0,11.785c0,1.137,0,2.274,0,3.411a1.644,1.644,0,0,1-1.862,1.845H64.819V42.2q0,16.038,0,32.076c0,.207.007.414-.007.62a1.587,1.587,0,0,1-1.562,1.509c-.118,0-.236,0-.354,0q-28.354,0-56.708,0a3.392,3.392,0,0,1-.705-.043A1.6,1.6,0,0,1,4.24,74.657q-.005-4.94,0-9.88,0-11.342,0-22.683v-.489c-.189-.009-.346-.021-.5-.022-.709,0-1.418.008-2.126-.008A1.568,1.568,0,0,1,.016,40.1,4.15,4.15,0,0,1,0,39.662q0-7.509,0-15.018c0-1.4.564-1.97,1.953-1.97H24.761l.03-.1m8.1,19.027H7.482v31.59h25.4Zm3.279,31.579H61.58v-31.6H36.165ZM32.928,25.9H3.242V38.386h.512q14.311,0,28.622.011c.457,0,.563-.127.562-.568-.017-3.81-.01-7.621-.01-11.431Zm32.893,0H36.163V38.348H65.821ZM32.788,22.519l.115-.124a3.589,3.589,0,0,0-.037-.476c-.228-1.081-.39-2.183-.711-3.236a38.706,38.706,0,0,0-4.041-8.5,20.193,20.193,0,0,0-4.394-5.4,7.2,7.2,0,0,0-2.943-1.468,3.412,3.412,0,0,0-3.409.851C15.353,6.2,14.713,8.484,15.9,11.062a12.068,12.068,0,0,0,3.094,3.944,33.8,33.8,0,0,0,8.654,5.386c1.688.765,3.427,1.421,5.143,2.126m3.461.1.13.133c.669-.294,1.368-.536,2-.892,3.177-1.785,6.335-3.6,9.5-5.4a6.513,6.513,0,0,0,2.282-2.3,3.493,3.493,0,0,0,.131-3.62C48.989,7.876,45.59,7.5,43.461,8.58a9.075,9.075,0,0,0-3.408,3.406,26.875,26.875,0,0,0-3.318,8.351c-.182.755-.325,1.519-.486,2.278" transform="translate(0 0)"></path></g></svg> 