<?xml version="1.0" encoding="UTF-8"?> <svg xmlns="http://www.w3.org/2000/svg" xmlns:xlink="http://www.w3.org/1999/xlink" width="555.738" height="71.714" viewBox="0 0 555.738 71.714"><defs><clipPath id="clip-path"><rect id="Rectangle_363" data-name="Rectangle 363" width="555.738" height="71.714" transform="translate(0 0)" fill="#fff"></rect></clipPath></defs><g id="Group_1194" data-name="Group 1194" transform="translate(0 0)" clip-path="url(#clip-path)"><path id="Path_2105" data-name="Path 2105" d="M59.288,55.5H39.367c0-2.816,3.472-2.031,4-3.406V10.753L28.041,55.377H23.325L7.263,10.955c0,11.974-.065,28.733-.065,40.987,0,2,4.89.512,4.89,3.566H0c0-2.793,4.889-1.712,4.889-3.445V4.37C4.889,3.005.9,3.48.9.664V.644h19.84a2.253,2.253,0,0,1-1.487,2.139H14.588l4.078,2.066,12.388,34.33L42.512,5.928c1.222-3.462-4.346-1.822-4.346-5.3H59.3c0,3.015-4.065,1.9-4.065,3.8V52.026c.524,1.441,4.062.656,4.052,3.472" fill="#fff"></path><path id="Path_2106" data-name="Path 2106" d="M86.872,55.346v-4.89a12.388,12.388,0,0,1-10.588,5.356c-10.2,0-12.848-7.5-12.848-15.429v-21c0-1.933-4-.772-4-3.808H74.67c0,13.108,0,15.172.061,26.152.066,5.939.631,11.347,4.956,11.347,2.324,0,4.923-1.868,7.251-5.806.061-8.006.191-20,.191-27.885,0-1.933-4-.772-4-3.808H98.689c.066,12.062-.258,23.889-.258,35.96,0,1.956,4,.841,4,3.811Z" fill="#fff"></path><path id="Path_2107" data-name="Path 2107" d="M118.772,15.576c0,13.6-.068,26.926-.068,40.451,0,8.349-1.914,15.687-14.469,15.687-6.314,0-9.036-3.56-9.048-6.038a3.184,3.184,0,0,1,3.584-3.028c0,1.578.409,6.673,4.483,6.673,3.209,0,3.524-3.657,3.524-7.5l.141-42.18c0-2.021-4.174-.877-4.174-3.974Zm-12.117-9.49a5.868,5.868,0,1,1,5.867,5.649,5.778,5.778,0,0,1-5.867-5.649" fill="#fff"></path><path id="Path_2108" data-name="Path 2108" d="M157.065,41.6a1.255,1.255,0,0,1,1.3,1.392c0,4.482-4.033,12.733-17.278,12.733-12.039,0-17.991-9.542-17.991-19.592s6.149-20.537,18.376-20.537c9.415,0,13.64,4.733,13.64,9.858,0,6.148-5.826,12.867-20.169,12.867.68,4.482,3.259,10.878,9.727,10.878a10.8,10.8,0,0,0,10.5-5.082c.51-.72,1.119-2.517,1.888-2.517m-23.018-9.819a28.334,28.334,0,0,0,.541,4.525c8.251,0,10.471-6.448,10.471-11.181,0-3.332-1.54-7.873-4.163-7.938-5.249,0-6.849,9.085-6.849,14.591Z" fill="#fff"></path><path id="Path_2109" data-name="Path 2109" d="M214.9,42.242a1.255,1.255,0,0,1,1.3,1.392c0,4.482-4.033,12.733-17.278,12.733-12.039,0-17.991-9.542-17.991-19.592s6.149-20.537,18.376-20.537c9.415,0,13.64,4.733,13.64,9.858,0,6.148-5.826,12.867-20.169,12.867.68,4.482,3.259,10.878,9.727,10.878a10.8,10.8,0,0,0,10.5-5.082c.51-.72,1.119-2.517,1.888-2.517m-23.018-9.819a28.334,28.334,0,0,0,.541,4.525c8.251,0,10.471-6.448,10.471-11.181,0-3.332-1.54-7.873-4.163-7.938-5.249,0-6.849,9.085-6.849,14.591Z" fill="#fff"></path><path id="Path_2110" data-name="Path 2110" d="M251.335,44.67c0,8.89-9.274,10.669-16.135,10.669-8,0-15.818-2.933-15.818-9.02a5.995,5.995,0,0,1,6.038-6.226,5.722,5.722,0,0,1,4.253,1.78c-1.332.766-2.1,4.273-2.1,5.887a5.406,5.406,0,0,0,5.971,5.823,5.465,5.465,0,0,0,5.781-5.705c0-9.321-19.058-8.15-19.058-21.821,0-7.62,8.384-10.482,15.5-10.482,10.291,0,14.343,4.636,14.343,8.767a6.066,6.066,0,0,1-5.973,6.412,6.364,6.364,0,0,1-5.017-2.733,7.8,7.8,0,0,0,2.609-6.125,4.749,4.749,0,0,0-4.636-4.72,4.97,4.97,0,0,0-5.336,5.486c.01,9.731,19.575,10.187,19.575,22.008" fill="#fff"></path><path id="Path_2111" data-name="Path 2111" d="M216.411,6.807c-6.071-3.8-14.54-1.633-20.839.42a44.216,44.216,0,0,0-20.764,14.52l0-.841V15.559l-15.461-.08c0,3.024,3.993,1.867,3.993,3.8,0,10.05-.324,22.252-.258,32.357-.258,1.611-3.867.708-3.867,3.61h19.329c0-2.644-3.16-2.061-3.867-3.222,0-1.352,0-16.041.066-16.041l.045-10.456A37.618,37.618,0,0,1,190.909,12.5c7.4-3.325,14.9-5.185,22.067,1.136a3.418,3.418,0,0,0,5.2-1.278c1.278-2.308.312-4.248-1.766-5.55" fill="#fff"></path><line id="Line_77" data-name="Line 77" y2="47.929" transform="translate(265.172 11.736)" fill="none" stroke="#faa522" stroke-miterlimit="10" stroke-width="2"></line><path id="Path_2112" data-name="Path 2112" d="M279.566,18.46v-.879h2.815V18.74h-.241Zm2.815,10.363v1.159h-2.815V29.1l2.574-.281Zm-1.211-5.447c0-1.925,0-3.87-.057-5.8h2.536c-.056,1.888-.056,3.832-.056,5.8v.662c0,2.074,0,4.018.056,5.944h-2.536c.057-1.888.057-3.832.057-5.8Zm6.073-5.8,1.1,1h-5.964v-1h6.6l.13,3.273h-1.307Zm-.692,6.527h-4.17v-.983h4.17Zm2.939,2.6-.13,3.273h-6.979v-.99h6.338l-1.1.99.566-3.273Zm-3.524-3.329.281-1.885h.964v4.224h-.964l-.281-1.979Z" fill="#fff"></path><path id="Path_2113" data-name="Path 2113" d="M291.984,29.1l2.073-.28h.456l1.839.28v.878h-4.368Zm.082-11.522h2.571l.013,1.159h-.265l-2.319-.281Zm1.662,0h.929l.154,6.03v6.37h-1.083Zm.067,0h2.432l3.962,10.138h-.628l3.746-10.138h1.114l-4.59,12.4h-1.184ZM302.01,29.1l2.318-.28h.621l2.574.28v.878H302.01Zm1.51-4.717.034-6.805h2.421c-.056,1.9-.056,3.846-.056,5.8v.811c0,1.939,0,3.883.056,5.794h-2.512c.057-1.9.05-3.845.057-5.6m1.187-6.805h2.782v.878l-2.54.281h-.242Z" fill="#fff"></path><path id="Path_2114" data-name="Path 2114" d="M310.376,18.459v-.878h2.815V18.74h-.241Zm3.194,10.364,2.575.28v.878h-5.769V29.1l2.574-.28Zm-1.59-5.447c0-1.926,0-3.87-.056-5.8h2.535c-.056,1.888-.056,3.832-.056,5.8v1.14c0,1.714,0,3.54.056,5.465h-2.535c.056-1.887.056-3.832.056-5.794Zm3.186,1.782h-1.975V24.2h2.124a2.589,2.589,0,0,0,2.827-2.922c0-1.765-.961-2.729-2.9-2.729h-2.05v-.97h2.241c3.507,0,5.076,1.5,5.076,3.706,0,2.114-1.4,3.871-5.342,3.871" fill="#fff"></path><path id="Path_2115" data-name="Path 2115" d="M334.751,23.781c0,4.2-2.824,6.515-5.817,6.515s-5.83-2.2-5.83-6.515c0-4.2,2.855-6.515,5.83-6.515s5.817,2.206,5.817,6.515m-5.817,5.5c2.251,0,3.169-2.55,3.169-5.5s-.918-5.511-3.169-5.511-3.181,2.563-3.181,5.511.929,5.5,3.181,5.5" fill="#fff"></path><path id="Path_2116" data-name="Path 2116" d="M339.168,18.74l-2.533-.28v-.879h5.43v.879l-2.393.28Zm6.356-1.159h1.264l3.074,10.1-.783,1.009L352.2,17.581h1.065l-3.539,12.484h-1.3l-3.266-10.091.7-.308-3.22,10.4h-1.285l-3.666-12.484h2.541l2.651,10.1-.839,1.009Zm.374,1.159-2.337-.28v-.879h5.328v.879l-2.294.28Zm6.311,0-1.854-.28v-.879h4.1v.879l-1.815.28Z" fill="#fff"></path><path id="Path_2117" data-name="Path 2117" d="M356.7,18.46v-.879h2.815V18.74h-.241Zm2.815,10.363v1.159H356.7V29.1l2.574-.281Zm-1.211-5.447c0-1.925,0-3.87-.057-5.8h2.536c-.056,1.888-.056,3.832-.056,5.8v.662c0,2.074,0,4.018.056,5.944h-2.536c.057-1.888.057-3.832.057-5.8Zm6.073-5.8,1.1,1h-5.964v-1h6.605l.13,3.273h-1.307Zm-.692,6.527h-4.17v-.983h4.17Zm2.939,2.6-.13,3.273h-6.979v-.99h6.338l-1.1.99.566-3.273ZM363.1,23.38l.281-1.885h.964v4.224h-.964L363.1,23.74Z" fill="#fff"></path><path id="Path_2118" data-name="Path 2118" d="M369.3,18.459v-.878h2.815v1.158h-.241Zm3.058,10.364,2.574.28v.878H369.3V29.1l2.574-.28Zm-1.454-5.447c0-1.926,0-3.87-.056-5.8h2.508c-.056,1.924-.056,3.8-.056,5.913v.567c0,2.051,0,3.995.056,5.92H370.85c.056-1.888.056-3.832.056-5.794Zm1.226-.058H374.4c1.936,0,2.7-1.084,2.7-2.44,0-1.536-.827-2.328-2.559-2.328h-2.426v-.969h2.823c2.9,0,4.555,1.188,4.555,3.194,0,1.506-1.156,2.959-4.044,3.151l.035-.17c2.163.11,2.944.9,3.36,2.752l.7,2.994-1.066-.664,2.371.265v.878a5.789,5.789,0,0,1-1.7.228c-1.378,0-2.1-.381-2.306-1.543l-.554-2.6c-.278-1.383-.853-1.8-2.185-1.8h-1.974Z" fill="#fff"></path><path id="Path_2119" data-name="Path 2119" d="M383.047,29.1l2.073-.28h.456l1.839.28v.878h-4.368Zm.082-11.522H385.7l.013,1.159h-.265l-2.319-.281Zm1.662,0h.929l.154,6.03v6.37h-1.083Zm.067,0h2.432l3.962,10.138h-.628l3.746-10.138h1.114l-4.59,12.4H389.71ZM393.073,29.1l2.318-.28h.621l2.574.28v.878h-5.513Zm1.51-4.717.034-6.805h2.421c-.056,1.9-.056,3.846-.056,5.8v.811c0,1.939,0,3.883.056,5.794h-2.512c.057-1.9.05-3.845.057-5.6m1.187-6.805h2.782v.878l-2.54.281h-.242Z" fill="#fff"></path><path id="Path_2120" data-name="Path 2120" d="M401.439,18.46v-.879h2.815V18.74h-.241Zm2.815,10.363v1.159h-2.815V29.1l2.574-.281Zm-1.211-5.447c0-1.925,0-3.87-.057-5.8h2.536c-.056,1.888-.056,3.832-.056,5.8v.662c0,2.074,0,4.018.056,5.944h-2.536c.057-1.888.057-3.832.057-5.8Zm6.073-5.8,1.1,1h-5.965v-1h6.605l.131,3.273h-1.308Zm-.692,6.527h-4.17v-.983h4.17Zm2.939,2.6-.13,3.273h-6.979v-.99h6.338l-1.1.99.566-3.273ZM407.84,23.38l.28-1.885h.965v4.224h-.965l-.28-1.979Z" fill="#fff"></path><path id="Path_2121" data-name="Path 2121" d="M413.953,29.1l1.976-.28h.456l2.28.28v.878h-4.712Zm1.075-10.9,1.117.49-2.133-.226v-.885h3.525l7.221,9.925v2.558h-1.1Zm.513-.621,1.073.885V29.981h-1.073Zm6.093,0h4.713v.878l-1.883.281h-.449l-2.381-.281Zm2.052,0h1.072V30.064l-1.072-1.071Z" fill="#fff"></path><path id="Path_2122" data-name="Path 2122" d="M429.507,18.578l1.1-1-.543,3.4h-1.307l.108-3.4h10.6l.1,3.4h-1.3l-.543-3.4,1.1,1Zm4.944,10.245,2.72.281v.877h-6.013V29.1l2.692-.281Zm-1.5-5.447c0-1.925,0-3.87-.056-5.8h2.535c-.055,1.888-.055,3.832-.055,5.8v.8c0,1.932,0,3.876.055,5.8h-2.535c.056-1.887.056-3.832.056-5.794Z" fill="#fff"></path><path id="Path_2123" data-name="Path 2123" d="M446.814,29.1l1.9-.28h.354l1.912.28v.878h-4.162Zm5.439-11.581h1.534l4.251,12.459h-2.479l-3.47-10.606.568-.48-3.69,11.086h-1Zm-2.1,7.657H455.2l.361.976H449.85Zm3.408,3.945,2.231-.28h.821l2.358.28v.857h-5.41Z" fill="#fff"></path><path id="Path_2124" data-name="Path 2124" d="M461.121,29.1l1.976-.28h.456l2.28.28v.878h-4.712ZM462.2,18.2l1.117.49-2.133-.226v-.885H464.7l7.221,9.925v2.558h-1.1Zm.513-.621,1.073.885V29.981h-1.073Zm6.093,0h4.713v.878l-1.883.281h-.449l-2.381-.281Zm2.052,0h1.072V30.064l-1.072-1.071Z" fill="#fff"></path><path id="Path_2125" data-name="Path 2125" d="M476.089,18.46v-.879H478.9V18.74h-.241ZM478.9,28.824v1.158h-2.815V29.1l2.574-.28Zm-1.211-5.448c0-1.925,0-3.869-.057-5.8h2.536c-.056,1.889-.056,3.832-.056,5.8v.662c0,2.075,0,4.018.056,5.944h-2.536c.057-1.888.057-3.832.057-5.937Zm1.211,5.636h2.315c2.531,0,3.994-1.906,3.994-5.226,0-3.409-1.463-5.235-3.894-5.235H478.9v-.97h2.719c3.771,0,6.2,2.268,6.2,6.192,0,3.969-2.7,6.209-6.557,6.209H478.9Z" fill="#fff"></path><path id="Path_2126" data-name="Path 2126" d="M506.04,28.165v.994l-1.207.269.55-2.849h1.284l-.074,2.793a7.987,7.987,0,0,1-3.852.924,6.089,6.089,0,0,1-6.407-6.515,6.194,6.194,0,0,1,6.464-6.514,7.27,7.27,0,0,1,3.635.911l.075,2.806h-1.284l-.557-2.862,1.207.275v1.085a3.973,3.973,0,0,0-2.742-1.219c-2.256,0-4.149,1.791-4.149,5.525s1.756,5.5,4.038,5.5a4.821,4.821,0,0,0,3.019-1.128" fill="#fff"></path><path id="Path_2127" data-name="Path 2127" d="M509.423,18.459v-.878h5.638v.878l-2.6.281H512Zm3.037,10.364,2.6.281v.877h-5.638V29.1L512,28.823Zm-1.433-5.447c0-1.925,0-3.87-.057-5.8h2.536c-.056,1.888-.056,3.832-.056,5.8v.8c0,1.932,0,3.876.056,5.8H510.97c.057-1.887.057-3.832.057-5.794Z" fill="#fff"></path><path id="Path_2128" data-name="Path 2128" d="M519.971,18.74l-2.574-.28v-.879h5.548v.9l-2.456.255Zm-1.685-1.159h2.6l3.437,10.028-.468.2,3.458-10.233h1.112l-4.28,12.484h-1.3ZM527.3,18.74l-1.932-.255v-.9h4.181v.879l-1.924.28Z" fill="#fff"></path><path id="Path_2129" data-name="Path 2129" d="M531.8,18.459v-.878h5.638v.878l-2.6.281h-.463Zm3.037,10.364,2.6.281v.877H531.8V29.1l2.574-.281Zm-1.433-5.447c0-1.925,0-3.87-.057-5.8h2.536c-.056,1.888-.056,3.832-.056,5.8v.8c0,1.932,0,3.876.056,5.8h-2.536c.057-1.887.057-3.832.057-5.794Z" fill="#fff"></path><path id="Path_2130" data-name="Path 2130" d="M549.674,28.165v.994l-1.208.269.55-2.849H550.3l-.073,2.793a7.989,7.989,0,0,1-3.852.924,6.09,6.09,0,0,1-6.408-6.515,6.194,6.194,0,0,1,6.465-6.514,7.263,7.263,0,0,1,3.634.911l.075,2.806h-1.284l-.557-2.862,1.208.275v1.085a3.975,3.975,0,0,0-2.742-1.219c-2.256,0-4.149,1.791-4.149,5.525s1.755,5.5,4.037,5.5a4.826,4.826,0,0,0,3.02-1.128" fill="#fff"></path><path id="Path_2131" data-name="Path 2131" d="M279.8,40.893v-.878h2.815v1.158h-.241Zm2.815,10.364v1.159H279.8v-.878l2.574-.281ZM281.4,45.81c0-1.926,0-3.869-.057-5.8h2.536c-.056,1.888-.056,3.832-.056,5.8v.662c0,2.074,0,4.019.056,5.944h-2.536c.057-1.888.057-3.832.057-5.8Zm6.073-5.8,1.1,1h-5.964v-1h6.605l.13,3.273h-1.307Zm-.692,6.527h-4.17V45.56h4.17Zm2.939,2.6-.13,3.273h-6.979v-.99h6.338l-1.1.99.566-3.273ZM286.2,45.814l.281-1.885h.964v4.224h-.964l-.281-1.979Z" fill="#fff"></path><path id="Path_2132" data-name="Path 2132" d="M292.314,51.537l1.976-.28h.456l2.28.28v.878h-4.712Zm1.075-10.9,1.117.489-2.133-.225v-.885H295.9l7.221,9.926V52.5h-1.1Zm.513-.621,1.073.885V52.415H293.9Zm6.093,0h4.713v.878l-1.883.28h-.449l-2.381-.28Zm2.052,0h1.072V52.5l-1.072-1.072Z" fill="#fff"></path><path id="Path_2133" data-name="Path 2133" d="M317.68,51.634a8.28,8.28,0,0,1-4.174,1.1c-3.793,0-6.377-2.607-6.377-6.529a6.128,6.128,0,0,1,6.528-6.5,7.44,7.44,0,0,1,3.688.877l.075,2.813h-1.3l-.564-2.869,1.228.319v1.024a4.231,4.231,0,0,0-2.87-1.168c-2.315,0-4.137,1.86-4.137,5.505s1.7,5.521,4.185,5.521a5.013,5.013,0,0,0,2.511-.712l-1.136,1.044V50.8c0-1.469-.018-2.906-.056-4.382h2.453c-.037,1.45-.056,2.91-.056,4.416Zm-4.2-4.34v-.878h5.286v.878l-2.125.242h-.807Z" fill="#fff"></path><path id="Path_2134" data-name="Path 2134" d="M320.182,51.537l1.9-.28h.354l1.912.28v.878h-4.162Zm5.439-11.581h1.534l4.251,12.459h-2.479l-3.47-10.606.568-.48-3.69,11.086h-.995Zm-2.1,7.657h5.047l.361.976h-5.714Zm3.408,3.945,2.231-.28h.821l2.358.28v.857h-5.41Z" fill="#fff"></path><path id="Path_2135" data-name="Path 2135" d="M344.658,51.634a8.28,8.28,0,0,1-4.174,1.1c-3.793,0-6.377-2.607-6.377-6.529a6.128,6.128,0,0,1,6.528-6.5,7.44,7.44,0,0,1,3.688.877l.075,2.813h-1.3l-.564-2.869,1.228.319v1.024a4.231,4.231,0,0,0-2.87-1.168c-2.315,0-4.137,1.86-4.137,5.505s1.7,5.521,4.185,5.521a5.013,5.013,0,0,0,2.511-.712l-1.136,1.044V50.8c0-1.469-.018-2.906-.056-4.382h2.453c-.037,1.45-.056,2.91-.056,4.416Zm-4.2-4.34v-.878h5.286v.878l-2.125.242h-.807Z" fill="#fff"></path><path id="Path_2136" data-name="Path 2136" d="M347.963,40.893v-.878h2.815v1.158h-.241Zm2.815,10.364v1.159h-2.815v-.878l2.574-.281Zm-1.211-5.447c0-1.926,0-3.869-.057-5.8h2.536c-.056,1.888-.056,3.832-.056,5.8v.662c0,2.074,0,4.019.056,5.944H349.51c.057-1.888.057-3.832.057-5.8Zm6.073-5.8,1.1,1h-5.964v-1h6.6l.13,3.273h-1.307Zm-.692,6.527h-4.17V45.56h4.17Zm2.939,2.6-.13,3.273h-6.979v-.99h6.338l-1.1.99.566-3.273Zm-3.524-3.329.281-1.885h.964v4.224h-.964l-.281-1.979Z" fill="#fff"></path><path id="Path_2137" data-name="Path 2137" d="M360.38,51.537l2.073-.28h.456l1.839.28v.878H360.38Zm.082-11.522h2.571l.013,1.158h-.265l-2.319-.28Zm1.662,0h.929l.154,6.03v6.37h-1.083Zm.067,0h2.432l3.962,10.139h-.628L371.7,40.015h1.114l-4.59,12.4h-1.184Zm8.215,11.522,2.318-.28h.621l2.574.28v.878h-5.513Zm1.51-4.717.034-6.805h2.421c-.056,1.9-.056,3.846-.056,5.8v.81c0,1.94,0,3.884.056,5.8h-2.512c.057-1.9.05-3.845.057-5.6m1.187-6.805h2.782v.878l-2.54.28H373.1Z" fill="#fff"></path><path id="Path_2138" data-name="Path 2138" d="M378.772,40.893v-.878h2.815v1.158h-.241Zm2.815,10.364v1.159h-2.815v-.878l2.574-.281Zm-1.211-5.447c0-1.926,0-3.869-.057-5.8h2.536c-.056,1.888-.056,3.832-.056,5.8v.662c0,2.074,0,4.019.056,5.944h-2.536c.057-1.888.057-3.832.057-5.8Zm6.073-5.8,1.1,1h-5.964v-1h6.6l.13,3.273h-1.307Zm-.692,6.527h-4.17V45.56h4.17Zm2.939,2.6-.13,3.273h-6.979v-.99h6.338l-1.1.99.566-3.273Zm-3.524-3.329.281-1.885h.964v4.224h-.964l-.281-1.979Z" fill="#fff"></path><path id="Path_2139" data-name="Path 2139" d="M391.285,51.537l1.976-.28h.456l2.28.28v.878h-4.712Zm1.075-10.9,1.117.489-2.133-.225v-.885h3.525l7.221,9.926V52.5h-1.1Zm.513-.621,1.073.885V52.415h-1.073Zm6.093,0h4.713v.878l-1.883.28h-.449l-2.381-.28Zm2.052,0h1.072V52.5l-1.072-1.072Z" fill="#fff"></path><path id="Path_2140" data-name="Path 2140" d="M406.839,41.011l1.1-1-.543,3.4H406.09l.108-3.4h10.6l.1,3.4h-1.3l-.543-3.4,1.1,1Zm4.944,10.246,2.72.281v.877H408.49v-.877l2.692-.281Zm-1.5-5.447c0-1.926,0-3.869-.056-5.8h2.535c-.055,1.888-.055,3.832-.055,5.8v.8c0,1.932,0,3.877.055,5.8h-2.535c.056-1.887.056-3.832.056-5.794Z" fill="#fff"></path><path id="Path_2141" data-name="Path 2141" d="M434.484,50.6v.994l-1.207.269.55-2.849h1.284l-.074,2.792a7.976,7.976,0,0,1-3.852.925,6.089,6.089,0,0,1-6.407-6.515,6.194,6.194,0,0,1,6.464-6.514,7.28,7.28,0,0,1,3.635.911l.075,2.806h-1.284l-.557-2.863,1.207.275v1.086a3.978,3.978,0,0,0-2.742-1.219c-2.256,0-4.149,1.791-4.149,5.525s1.756,5.505,4.038,5.505a4.827,4.827,0,0,0,3.019-1.128" fill="#fff"></path><path id="Path_2142" data-name="Path 2142" d="M449.475,46.215c0,4.2-2.824,6.515-5.817,6.515s-5.83-2.2-5.83-6.515c0-4.2,2.855-6.515,5.83-6.515s5.817,2.206,5.817,6.515m-5.817,5.505c2.251,0,3.169-2.55,3.169-5.505s-.918-5.512-3.169-5.512-3.181,2.564-3.181,5.512.929,5.505,3.181,5.505" fill="#fff"></path><path id="Path_2143" data-name="Path 2143" d="M451.9,51.537l1.976-.28h.456l2.28.28v.878H451.9Zm1.075-10.9,1.117.489-2.133-.225v-.885h3.525l7.221,9.926V52.5h-1.1Zm.513-.621,1.073.885V52.415h-1.073Zm6.093,0h4.713v.878l-1.883.28h-.449l-2.381-.28Zm2.052,0H462.7V52.5l-1.072-1.072Z" fill="#fff"></path><path id="Path_2144" data-name="Path 2144" d="M466.863,40.893v-.878h2.815v1.158h-.241Zm3.194,10.364,2.575.281v.878h-5.769v-.878l2.574-.281Zm-1.589-5.447c0-1.926,0-3.869-.057-5.8h2.535c-.056,1.888-.056,3.832-.056,5.8v.662c0,2.074,0,4.019.056,5.944h-2.535c.057-1.888.057-3.832.057-5.8Zm6.134-5.8,1.1,1h-6.027v-1h6.666l.131,3.273h-1.306Zm-.652,6.527h-4.271V45.56h4.271Zm-.585-.728.28-1.885h.965V48.34h-.965l-.28-1.979Z" fill="#fff"></path><path id="Path_2145" data-name="Path 2145" d="M478.94,40.893v-.878h2.815v1.158h-.241Zm2.815,10.364v1.159H478.94v-.878l2.574-.281Zm-1.211-5.447c0-1.926,0-3.869-.057-5.8h2.536c-.056,1.888-.056,3.832-.056,5.8v.662c0,2.074,0,4.019.056,5.944h-2.536c.057-1.888.057-3.832.057-5.8Zm6.073-5.8,1.1,1h-5.965v-1h6.606l.13,3.273h-1.307Zm-.691,6.527h-4.171V45.56h4.171Zm2.939,2.6-.131,3.273h-6.979v-.99h6.339l-1.1.99.566-3.273Zm-3.524-3.329.28-1.885h.965v4.224h-.965l-.28-1.979Z" fill="#fff"></path><path id="Path_2146" data-name="Path 2146" d="M491.541,40.893v-.878h2.815v1.158h-.241ZM494.6,51.257l2.574.28v.878h-5.632v-.878l2.574-.28Zm-1.454-5.447c0-1.926,0-3.87-.056-5.8H495.6c-.056,1.924-.056,3.8-.056,5.913v.567c0,2.051,0,4,.056,5.92h-2.508c.056-1.888.056-3.832.056-5.8Zm1.225-.058h2.269c1.936,0,2.7-1.084,2.7-2.44,0-1.537-.827-2.328-2.559-2.328h-2.426v-.969h2.823c2.9,0,4.555,1.187,4.555,3.194,0,1.506-1.156,2.959-4.044,3.151l.035-.171c2.163.111,2.944.907,3.36,2.753l.7,2.994-1.066-.664,2.371.265v.878a5.788,5.788,0,0,1-1.7.229c-1.378,0-2.1-.382-2.306-1.544l-.554-2.6c-.278-1.384-.853-1.8-2.185-1.8H494.37Z" fill="#fff"></path><path id="Path_2147" data-name="Path 2147" d="M505.395,40.893v-.878h2.815v1.158h-.241Zm2.815,10.364v1.159h-2.815v-.878l2.574-.281ZM507,45.81c0-1.926,0-3.869-.057-5.8h2.536c-.056,1.888-.056,3.832-.056,5.8v.662c0,2.074,0,4.019.056,5.944h-2.536c.057-1.888.057-3.832.057-5.8Zm6.073-5.8,1.1,1H508.21v-1h6.605l.13,3.273h-1.307Zm-.692,6.527h-4.17V45.56h4.17Zm2.939,2.6-.13,3.273H508.21v-.99h6.338l-1.1.99.566-3.273ZM511.8,45.814l.281-1.885h.964v4.224h-.964l-.281-1.979Z" fill="#fff"></path><path id="Path_2148" data-name="Path 2148" d="M517.908,51.537l1.976-.28h.456l2.28.28v.878h-4.712Zm1.075-10.9,1.117.489-2.133-.225v-.885h3.525l7.221,9.926V52.5h-1.1Zm.513-.621,1.073.885V52.415H519.5Zm6.093,0H530.3v.878l-1.883.28h-.449l-2.381-.28Zm2.052,0h1.072V52.5l-1.072-1.072Z" fill="#fff"></path><path id="Path_2149" data-name="Path 2149" d="M542.43,50.6v.994l-1.207.269.55-2.849h1.284l-.074,2.792a7.975,7.975,0,0,1-3.852.925,6.089,6.089,0,0,1-6.407-6.515,6.194,6.194,0,0,1,6.464-6.514,7.28,7.28,0,0,1,3.635.911l.075,2.806h-1.284l-.557-2.863,1.207.275v1.086a3.978,3.978,0,0,0-2.742-1.219c-2.256,0-4.149,1.791-4.149,5.525s1.756,5.505,4.038,5.505A4.827,4.827,0,0,0,542.43,50.6" fill="#fff"></path><path id="Path_2150" data-name="Path 2150" d="M545.814,40.893v-.878h2.815v1.158h-.241Zm2.815,10.364v1.159h-2.815v-.878l2.574-.281Zm-1.211-5.447c0-1.926,0-3.869-.057-5.8H549.9c-.056,1.888-.056,3.832-.056,5.8v.662c0,2.074,0,4.019.056,5.944h-2.536c.057-1.888.057-3.832.057-5.8Zm6.073-5.8,1.1,1h-5.964v-1h6.6l.13,3.273h-1.307Zm-.692,6.527h-4.17V45.56h4.17Zm2.939,2.6-.13,3.273h-6.979v-.99h6.338l-1.1.99.566-3.273Zm-3.524-3.329.281-1.885h.964v4.224h-.964l-.281-1.979Z" fill="#fff"></path></g></svg> 